<svg width="58" height="56" viewBox="0 0 58 56" fill="none" xmlns="http://www.w3.org/2000/svg">
<path d="M28.5 52.962C17.7482 52.962 9 44.3474 9 33.7598C9 23.1723 17.7482 14.5596 28.5 14.5596C39.2518 14.5596 48 23.1742 48 33.7617C48 44.3493 39.2518 52.962 28.5 52.962ZM28.5 15.1348C18.0695 15.1348 9.58412 23.4905 9.58412 33.7617C9.58412 44.0329 18.0695 52.3887 28.5 52.3887C38.9305 52.3887 47.4159 44.0329 47.4159 33.7617C47.4159 23.4905 38.9305 15.1348 28.5 15.1348Z" fill="white" stroke="white" stroke-miterlimit="10"/>
<path d="M29.3709 11.1201L27.9967 14.6631L28.5424 14.8683L29.9165 11.3254L29.3709 11.1201Z" fill="white" stroke="white" stroke-miterlimit="10"/>
<path d="M28.2684 36.3656C26.9112 36.3656 25.8073 35.2785 25.8073 33.944C25.8073 32.6076 26.9112 31.5205 28.2664 31.5186C29.6235 31.5186 30.7275 32.6057 30.7295 33.9402C30.7295 35.2765 29.6274 36.3656 28.2684 36.3656C28.2684 36.3656 28.2703 36.3656 28.2684 36.3656ZM26.3914 33.9421C26.3914 34.9602 27.2345 35.7904 28.2684 35.7904C29.3042 35.7904 30.1453 34.9602 30.1453 33.9402C30.1453 32.922 29.3023 32.0918 28.2684 32.0918C27.2325 32.0938 26.3914 32.924 26.3914 33.9421Z" fill="white"/>
<path d="M28.2684 36.3656C26.9112 36.3656 25.8073 35.2785 25.8073 33.944C25.8073 32.6076 26.9112 31.5205 28.2664 31.5186C29.6235 31.5186 30.7275 32.6057 30.7295 33.9402C30.7295 35.2765 29.6274 36.3656 28.2684 36.3656ZM28.2684 36.3656C28.2703 36.3656 28.2684 36.3656 28.2684 36.3656ZM26.3914 33.9421C26.3914 34.9602 27.2345 35.7904 28.2684 35.7904C29.3042 35.7904 30.1453 34.9602 30.1453 33.9402C30.1453 32.922 29.3023 32.0918 28.2684 32.0918C27.2325 32.0938 26.3914 32.924 26.3914 33.9421Z" stroke="white" stroke-miterlimit="10"/>
<path d="M28.3249 48.0552C28.2236 48.0552 28.134 48.0552 28.0386 48.0533L28.0503 47.4781C28.1418 47.48 28.2256 47.48 28.3249 47.48C28.4884 47.48 28.65 47.4762 28.8116 47.4724L28.833 48.0476C28.6656 48.0533 28.4962 48.0552 28.3249 48.0552ZM27.2462 48.0169C26.9833 47.9977 26.7166 47.9709 26.4557 47.9383L26.5316 47.3688C26.7828 47.4014 27.0378 47.4263 27.289 47.4455L27.2462 48.0169ZM29.6274 47.9977L29.5749 47.4244C29.8261 47.4014 30.0811 47.3727 30.3323 47.3362L30.418 47.9057C30.1551 47.9421 29.8903 47.9747 29.6274 47.9977ZM25.671 47.8156C25.412 47.7676 25.1492 47.712 24.8941 47.6507L25.0323 47.0927C25.2777 47.1522 25.5288 47.2058 25.7781 47.2519L25.671 47.8156ZM31.1987 47.7695L31.0819 47.2058C31.3292 47.156 31.5784 47.0985 31.8238 47.0352L31.9717 47.5912C31.7167 47.6583 31.4577 47.7178 31.1987 47.7695ZM24.1269 47.4417C23.8738 47.365 23.6188 47.2806 23.3715 47.1924L23.574 46.6517C23.8115 46.738 24.0549 46.8185 24.2983 46.8914L24.1269 47.4417ZM32.735 47.3727L32.5539 46.8262C32.7953 46.7495 33.0387 46.6652 33.2724 46.575L33.4827 47.1119C33.2393 47.2039 32.9881 47.2921 32.735 47.3727ZM22.6335 46.901C22.3921 46.7975 22.1487 46.6862 21.9112 46.5693L22.1721 46.0554C22.3999 46.1686 22.6335 46.274 22.8633 46.3737L22.6335 46.901ZM34.2167 46.809L33.9772 46.2855C34.207 46.1839 34.4367 46.0727 34.6606 45.9577L34.9313 46.4677C34.6957 46.5865 34.4562 46.7016 34.2167 46.809ZM21.2102 46.2012C20.9805 46.0727 20.7527 45.9346 20.5307 45.7928L20.8481 45.3096C21.0603 45.4457 21.2803 45.5761 21.5003 45.7007L21.2102 46.2012ZM35.6225 46.0861L35.3246 45.5914C35.5427 45.4649 35.7588 45.3288 35.9691 45.1907L36.2942 45.6681C36.0762 45.8139 35.8503 45.9538 35.6225 46.0861ZM19.8745 45.3479C19.6603 45.1946 19.4481 45.0335 19.2456 44.8686L19.6156 44.4238C19.8103 44.581 20.0128 44.7363 20.2192 44.8839L19.8745 45.3479ZM36.9407 45.2156L36.5883 44.7574C36.7908 44.6078 36.9894 44.4506 37.1841 44.2896L37.5618 44.7286C37.3612 44.8954 37.151 45.0603 36.9407 45.2156ZM18.6459 44.3567C18.4512 44.1803 18.2585 43.9981 18.0754 43.8122L18.4921 43.4095C18.6693 43.5878 18.8523 43.7623 19.0412 43.931L18.6459 44.3567ZM38.1557 44.2071L37.7546 43.7891C37.9395 43.6185 38.1206 43.4402 38.2939 43.258L38.7184 43.6549C38.5353 43.8428 38.3465 44.0288 38.1557 44.2071ZM17.5341 43.2389C17.3608 43.0433 17.1895 42.8401 17.0279 42.6368L17.4874 42.2821C17.6432 42.4777 17.8067 42.6732 17.9742 42.8592L17.5341 43.2389ZM39.248 43.0721L38.8021 42.7001C38.9656 42.5103 39.1272 42.3128 39.2791 42.1153L39.7445 42.4623C39.5868 42.6694 39.4193 42.8746 39.248 43.0721ZM16.5548 42.0079C16.4029 41.7951 16.2569 41.5746 16.1186 41.3541L16.6151 41.0512C16.7475 41.2621 16.8877 41.473 17.0337 41.6781L16.5548 42.0079ZM40.2079 41.8239L39.7231 41.5018C39.8652 41.2947 40.0034 41.0799 40.1319 40.8671L40.6343 41.1624C40.4999 41.3848 40.3578 41.6072 40.2079 41.8239ZM15.7195 40.6792C15.5948 40.453 15.4722 40.2171 15.3593 39.9832L15.8869 39.7359C15.9959 39.9621 16.1128 40.1865 16.2315 40.405L15.7195 40.6792ZM41.0237 40.4798L40.5058 40.2133C40.6226 39.9928 40.7355 39.7666 40.8407 39.5384L41.3722 39.7761C41.2632 40.0139 41.1464 40.2497 41.0237 40.4798ZM15.0399 39.268C14.9406 39.0284 14.8472 38.783 14.7596 38.5356L15.3125 38.3477C15.3962 38.5836 15.4858 38.8213 15.5812 39.0514L15.0399 39.268ZM41.6818 39.0533L41.1366 38.8443C41.2281 38.6123 41.3158 38.3727 41.3936 38.1368L41.9486 38.3151C41.8668 38.5625 41.7772 38.8098 41.6818 39.0533ZM14.524 37.7879C14.4519 37.5367 14.3857 37.2817 14.3292 37.0286L14.8997 36.904C14.9543 37.1456 15.0166 37.391 15.0867 37.6306L14.524 37.7879ZM42.1744 37.5635L41.6098 37.4159C41.674 37.1743 41.7324 36.9289 41.785 36.6854L42.3575 36.8004C42.3029 37.0554 42.2426 37.3124 42.1744 37.5635ZM14.1774 36.2617C14.1345 36.0047 14.0975 35.744 14.0703 35.4871L14.6505 35.4257C14.6778 35.673 14.7128 35.9223 14.7537 36.1696L14.1774 36.2617ZM42.4957 36.0316L41.9174 35.9472C41.9544 35.7018 41.9856 35.4506 42.0089 35.2014L42.5911 35.2551C42.5658 35.5139 42.5346 35.7747 42.4957 36.0316ZM14.0041 34.7067C13.9905 34.4536 13.9827 34.1967 13.9827 33.9417L14.5668 33.9244C14.5668 34.1852 14.5726 34.4325 14.5863 34.676L14.0041 34.7067ZM42.6417 34.4728L42.0576 34.4517C42.0634 34.283 42.0673 34.1123 42.0673 33.9398C42.0673 33.8592 42.0673 33.7806 42.0654 33.7001L42.6495 33.6886C42.6515 33.7729 42.6515 33.8554 42.6515 33.9398C42.6515 34.12 42.6476 34.2964 42.6417 34.4728ZM14.5902 33.1747L14.006 33.1421C14.0216 32.8833 14.043 32.6206 14.0722 32.3618L14.6525 32.4251C14.6252 32.6743 14.6038 32.9255 14.5902 33.1747ZM42.0303 32.9504C42.0128 32.7012 41.9875 32.45 41.9544 32.2026L42.5346 32.1298C42.5677 32.3867 42.595 32.6494 42.6145 32.9082L42.0303 32.9504ZM14.7596 31.683L14.1832 31.5872C14.2261 31.3322 14.2786 31.0733 14.337 30.8202L14.9075 30.9468C14.8491 31.1903 14.8004 31.4376 14.7596 31.683ZM41.8376 31.4626C41.7909 31.2171 41.7383 30.9698 41.6779 30.7282L42.2465 30.5921C42.3088 30.8452 42.3652 31.1021 42.412 31.3571L41.8376 31.4626ZM15.0944 30.2182L14.5337 30.061C14.6057 29.8098 14.6875 29.5586 14.7732 29.3151L15.3242 29.503C15.2405 29.7369 15.1645 29.9785 15.0944 30.2182ZM41.4774 30.0054C41.4034 29.7676 41.3236 29.528 41.2359 29.294L41.785 29.0966C41.8765 29.342 41.9602 29.5912 42.0362 29.8386L41.4774 30.0054ZM15.5948 28.7994L15.0536 28.5808C15.1548 28.3392 15.2638 28.0995 15.3768 27.8637L15.9044 28.111C15.7954 28.3373 15.6903 28.5693 15.5948 28.7994ZM40.9536 28.5961C40.8524 28.366 40.7453 28.1379 40.6323 27.9155L41.1561 27.6585C41.2729 27.8905 41.3859 28.1283 41.491 28.368L40.9536 28.5961ZM16.251 27.4438L15.7389 27.1677C15.8655 26.9395 16.0018 26.7114 16.14 26.4909L16.6365 26.7957C16.5041 27.0067 16.3737 27.2252 16.251 27.4438ZM40.276 27.2521C40.1495 27.0335 40.0171 26.8188 39.8808 26.6098L40.3714 26.2972C40.5136 26.5139 40.6518 26.7401 40.7842 26.9664L40.276 27.2521ZM17.0571 26.1688L16.5781 25.839C16.73 25.6262 16.8897 25.4153 17.0532 25.2101L17.5127 25.5667C17.357 25.7623 17.2031 25.9636 17.0571 26.1688ZM39.4485 25.9924C39.3005 25.7911 39.1428 25.5917 38.9832 25.398L39.4368 25.0356C39.6043 25.2369 39.7678 25.4459 39.9217 25.6568L39.4485 25.9924ZM18.0014 24.9896L17.5633 24.61C17.7386 24.4144 17.9197 24.2227 18.1046 24.0367L18.5213 24.4412C18.3441 24.6176 18.1689 24.8017 18.0014 24.9896ZM38.4867 24.8266C38.3153 24.6426 38.1381 24.4604 37.9571 24.2859L38.3659 23.8756C38.5548 24.0578 38.7398 24.2476 38.917 24.4393L38.4867 24.8266ZM19.0723 23.9197L18.679 23.4941C18.8737 23.3196 19.0762 23.149 19.2807 22.9841L19.6487 23.4308C19.454 23.588 19.2593 23.7529 19.0723 23.9197ZM37.4002 23.774C37.2113 23.6091 37.0127 23.4481 36.8141 23.2928L37.1743 22.8403C37.3827 23.0013 37.5871 23.1701 37.7857 23.3407L37.4002 23.774ZM20.2542 22.9726L19.9115 22.5066C20.1257 22.3533 20.3457 22.2056 20.5677 22.0657L20.8831 22.5488C20.6709 22.685 20.4587 22.8268 20.2542 22.9726ZM36.2008 22.846C35.9944 22.7022 35.7802 22.5642 35.5641 22.4319L35.8717 21.943C36.0956 22.081 36.3196 22.2248 36.5357 22.3744L36.2008 22.846ZM21.5334 22.1615L21.2453 21.6611C21.4731 21.5346 21.7087 21.4099 21.9462 21.293L22.2071 21.8087C21.9793 21.9199 21.7515 22.0388 21.5334 22.1615ZM22.8964 21.4943L22.6666 20.9651C22.91 20.8616 23.1573 20.7657 23.4046 20.6775L23.6051 21.2182C23.3676 21.3026 23.13 21.3965 22.8964 21.4943ZM24.3275 20.9804L24.1581 20.4302C24.4112 20.3554 24.6702 20.2845 24.9253 20.225L25.0635 20.7849C24.8162 20.8424 24.5689 20.9076 24.3275 20.9804ZM25.8073 20.6257L25.7021 20.0601C25.9611 20.0122 26.2259 19.9719 26.4868 19.9393L26.5608 20.5107C26.3096 20.5433 26.0565 20.5816 25.8073 20.6257ZM29.6041 20.4608C29.3529 20.4378 29.0978 20.4206 28.8428 20.4129L28.8642 19.8377C29.129 19.8473 29.3957 19.8646 29.6567 19.8895L29.6041 20.4608ZM27.3182 20.4359L27.2773 19.8626C27.5402 19.8435 27.8069 19.832 28.0717 19.8281L28.0815 20.4033C27.8264 20.4072 27.5713 20.4187 27.3182 20.4359Z" fill="white" stroke="white" stroke-miterlimit="10"/>
<path d="M32.9775 20.0186L28.6812 31.7085L29.2305 31.9042L33.5267 20.2144L32.9775 20.0186Z" fill="white" stroke="white" stroke-miterlimit="10"/>
<path d="M12.0939 20.0776C11.2547 18.8313 10.9587 17.3377 11.2586 15.8729C11.5604 14.408 12.4229 13.1445 13.6885 12.3181C14.9541 11.4918 16.4709 11.2003 17.9585 11.4956C19.446 11.7928 20.7292 12.6422 21.5683 13.8884L21.0816 14.2067C20.3281 13.0889 19.1773 12.3258 17.8416 12.0593C16.5059 11.7928 15.1449 12.0555 14.0098 12.7975C12.8746 13.5395 12.0997 14.6726 11.8291 15.9879C11.5584 17.3032 11.8252 18.6434 12.5787 19.7612L12.0939 20.0776Z" fill="white" stroke="white" stroke-miterlimit="10"/>
<path d="M44.6686 20.0774L44.1818 19.7591C45.7375 17.4507 45.095 14.3273 42.7507 12.7953C41.6156 12.0533 40.2545 11.7926 38.9189 12.0572C37.5832 12.3237 36.4324 13.0849 35.6789 14.2046L35.1921 13.8863C36.0313 12.64 37.3145 11.7907 38.802 11.4935C40.2896 11.1963 41.8064 11.4896 43.072 12.316C45.6849 14.0244 46.4015 17.5063 44.6686 20.0774Z" fill="white" stroke="white" stroke-miterlimit="10"/>
<path d="M31.4438 12.1128C31.2822 12.1128 31.1206 12.084 30.9648 12.0246L28.1162 10.9547C27.425 10.6958 27.0785 9.93082 27.3413 9.25016L27.5574 8.69413C27.6859 8.36435 27.9352 8.10359 28.2623 7.95979C28.5894 7.81599 28.9535 7.8064 29.2884 7.93103L32.137 9.00091C32.8282 9.25975 33.1748 10.0248 32.9119 10.7054L32.6958 11.2615C32.5673 11.5912 32.318 11.852 31.9909 11.9958C31.8157 12.0744 31.6288 12.1128 31.4438 12.1128ZM28.8094 8.41995C28.7043 8.41995 28.5991 8.44104 28.4998 8.48514C28.3148 8.56567 28.1747 8.71331 28.1026 8.89929L27.8865 9.45532C27.7385 9.83879 27.9332 10.2702 28.3246 10.4178L31.1732 11.4877C31.362 11.5586 31.5684 11.5529 31.7514 11.4724C31.9364 11.3918 32.0766 11.2442 32.1486 11.0582L32.3648 10.5022C32.5128 10.1187 32.318 9.68732 31.9286 9.53968L29.0801 8.46981C28.9924 8.43721 28.9009 8.41995 28.8094 8.41995Z" fill="white" stroke="white" stroke-miterlimit="10"/>
<path d="M16.6034 9.36153L16.4418 8.80933C18.5699 8.20537 20.3515 6.75778 21.3309 4.83468C22.5361 2.46868 24.8726 1 27.4272 1H29.9584C32.5967 1 35.0013 2.44376 36.0859 4.67746C36.9679 6.4951 38.5664 7.90818 40.5836 8.65594L40.3772 9.19472C38.2179 8.39519 36.5064 6.87857 35.5582 4.92672C34.5691 2.8905 32.3708 1.5752 29.9565 1.5752H27.4252C25.0926 1.5752 22.9567 2.92309 21.8508 5.09352C20.8013 7.1585 18.8873 8.71538 16.6034 9.36153Z" fill="white" stroke="white" stroke-miterlimit="10"/>
<path d="M16.9461 54.7393L13.8911 53.2438L15.0282 47.3633L15.6026 47.4707L14.5473 52.9236L16.7825 54.0165L19.6506 50.4483L20.1081 50.8049L16.9461 54.7393Z" fill="white" stroke="white" stroke-miterlimit="10"/>
<path d="M39.75 54.9998L36.5354 51.0041L36.9949 50.6455L39.9136 54.277L42.1917 53.1611L41.1188 47.6161L41.6913 47.5068L42.8478 53.4832L39.75 54.9998Z" fill="white" stroke="white" stroke-miterlimit="10"/>
<path d="M28.5623 36.0776H27.9781V41.8182H28.5623V36.0776Z" fill="white" stroke="white" stroke-miterlimit="10"/>
<path d="M11.369 10.107L10.937 10.4941L13.2668 13.0155L13.6988 12.6284L11.369 10.107Z" fill="white" stroke="white" stroke-miterlimit="10"/>
<path d="M45.6304 10.1073L43.3028 12.6255L43.7348 13.0127L46.0624 10.4945L45.6304 10.1073Z" fill="white" stroke="white" stroke-miterlimit="10"/>
</svg>
