<svg width="22" height="21" viewBox="0 0 22 21" fill="none" xmlns="http://www.w3.org/2000/svg">
<path d="M21.0369 10.3847C21.0369 15.8756 16.4345 20.35 10.7281 20.35C5.02179 20.35 0.419355 15.8756 0.419355 10.3847C0.419355 4.89373 5.02179 0.419355 10.7281 0.419355C16.4345 0.419355 21.0369 4.89373 21.0369 10.3847Z" fill="#323746" stroke="white" stroke-width="0.83871"/>
<path d="M18.0685 10.3845C18.0685 14.2081 14.7822 17.3076 10.7282 17.3076C6.67431 17.3076 3.38794 14.2081 3.38794 10.3845C3.38794 6.561 6.67431 3.46143 10.7282 3.46143C14.7822 3.46143 18.0685 6.561 18.0685 10.3845Z" fill="#10BEF0"/>
<path d="M18.0685 10.3845C18.0685 14.2081 14.7822 17.3076 10.7282 17.3076C6.67431 17.3076 3.38794 14.2081 3.38794 10.3845C3.38794 6.561 6.67431 3.46143 10.7282 3.46143C14.7822 3.46143 18.0685 6.561 18.0685 10.3845Z" stroke="white"/>
<path d="M9.28778 12.6284L7.41378 10.8344L6.77563 11.441L9.28778 13.8459L14.6806 8.68327L14.0469 8.07666L9.28778 12.6284Z" fill="white"/>
</svg>
