<svg width="58" height="56" viewBox="0 0 58 56" fill="none" xmlns="http://www.w3.org/2000/svg">
<path d="M45.5433 41.2038H37.6281V25.0298H45.5433V41.2038ZM38.2487 40.6245H44.9204V25.6112H38.2487V40.6245V40.6245Z" fill="white" stroke="white" stroke-width="0.7" stroke-miterlimit="10"/>
<path d="M52.8354 41.2038H45.6264V25.0298H52.8354V41.2038ZM46.2471 40.6245H52.2147V25.6112H46.2471V40.6245Z" fill="white" stroke="white" stroke-width="0.7" stroke-miterlimit="10"/>
<path d="M52.8356 24.9521H37.6259V14.7085H52.8356V24.9521ZM38.2488 24.3728H52.2149V15.2899H38.2488V24.3728ZM49.7783 20.7801H47.7452V18.8825H49.7783V20.7801ZM48.3659 20.1988H49.1555V19.4618H48.3659V20.1988ZM46.0126 20.7801H43.9795V18.8825H46.0126V20.7801ZM44.6002 20.1988H45.3898V19.4618H44.6002V20.1988ZM42.2491 20.7801H40.216V18.8825H42.2491V20.7801ZM40.8367 20.1988H41.6263V19.4618H40.8367V20.1988Z" fill="white" stroke="white" stroke-width="0.7" stroke-miterlimit="10"/>
<path d="M20.8369 41.2039H5.1556V14.7085H10.6122L10.7022 14.8538C12.301 17.427 14.6148 19.8467 14.7135 19.949L15.0271 20.2745L15.3407 19.949C15.7487 19.5253 17.8607 17.2817 19.3652 14.8538L19.4552 14.7085H20.8369V30.6614H6.01314V30.7392H20.8369V41.2039V41.2039ZM5.77627 40.6246H20.214V31.3226H5.77627V40.6246ZM5.77627 30.0821H20.214V15.2899H19.8104C18.2818 17.7095 16.2092 19.9122 15.8013 20.3359L15.0249 21.1425L14.2485 20.3359C14.1498 20.2336 11.8777 17.861 10.2526 15.2899H5.77627V30.0821ZM17.7774 37.47H15.7443V35.5724H17.7774V37.47V37.47ZM16.365 36.8907H17.1545V36.1537H16.365V36.8907ZM14.2485 37.47H12.2155V35.5724H14.2485V37.47ZM12.8361 36.8907H13.6257V36.1537H12.8361V36.8907ZM10.4828 37.47H8.44976V35.5724H10.4828V37.47ZM9.07043 36.8907H9.85998V36.1537H9.07043V36.8907Z" fill="white" stroke="white" stroke-width="0.7" stroke-miterlimit="10"/>
<path d="M22.7736 39.3285L29.5746 27.832L36.3757 39.3285L29.5746 36.7983L22.7736 39.3285ZM29.5768 36.1739L34.994 38.1882L29.5768 29.0316L24.1596 38.1882L29.5768 36.1739Z" fill="white" stroke="white" stroke-width="0.7" stroke-miterlimit="10"/>
<path d="M23.2645 45.2242C23.8883 45.2242 24.394 44.7522 24.394 44.17C24.394 43.5877 23.8883 43.1157 23.2645 43.1157C22.6407 43.1157 22.135 43.5877 22.135 44.17C22.135 44.7522 22.6407 45.2242 23.2645 45.2242Z" fill="white" stroke="white" stroke-width="0.7" stroke-miterlimit="10"/>
<path d="M23.2648 45.3264C22.5805 45.3264 22.0257 44.8085 22.0257 44.1698C22.0257 43.5311 22.5805 43.0132 23.2648 43.0132C23.9491 43.0132 24.504 43.5311 24.504 44.1698C24.504 44.8085 23.9491 45.3264 23.2648 45.3264ZM23.2648 43.2179C22.7033 43.2179 22.245 43.6457 22.245 44.1698C22.245 44.6938 22.7033 45.1217 23.2648 45.1217C23.8263 45.1217 24.2846 44.6938 24.2846 44.1698C24.2846 43.6457 23.8285 43.2179 23.2648 43.2179Z" fill="white" stroke="white" stroke-width="0.7" stroke-miterlimit="10"/>
<path d="M29.042 45.2242C29.6658 45.2242 30.1715 44.7522 30.1715 44.17C30.1715 43.5877 29.6658 43.1157 29.042 43.1157C28.4182 43.1157 27.9125 43.5877 27.9125 44.17C27.9125 44.7522 28.4182 45.2242 29.042 45.2242Z" fill="white" stroke="white" stroke-width="0.7" stroke-miterlimit="10"/>
<path d="M29.0416 45.3264C28.3573 45.3264 27.8024 44.8085 27.8024 44.1698C27.8024 43.5311 28.3573 43.0132 29.0416 43.0132C29.7259 43.0132 30.2807 43.5311 30.2807 44.1698C30.2807 44.8085 29.7259 45.3264 29.0416 45.3264ZM29.0416 43.2179C28.4801 43.2179 28.0218 43.6457 28.0218 44.1698C28.0218 44.6938 28.4801 45.1217 29.0416 45.1217C29.603 45.1217 30.0614 44.6938 30.0614 44.1698C30.0614 43.6457 29.603 43.2179 29.0416 43.2179Z" fill="white" stroke="white" stroke-width="0.7" stroke-miterlimit="10"/>
<path d="M34.8187 45.2242C35.4425 45.2242 35.9481 44.7522 35.9481 44.17C35.9481 43.5877 35.4425 43.1157 34.8187 43.1157C34.1949 43.1157 33.6892 43.5877 33.6892 44.17C33.6892 44.7522 34.1949 45.2242 34.8187 45.2242Z" fill="white" stroke="white" stroke-width="0.7" stroke-miterlimit="10"/>
<path d="M34.8184 45.3264C34.1341 45.3264 33.5792 44.8085 33.5792 44.1698C33.5792 43.5311 34.1341 43.0132 34.8184 43.0132C35.5026 43.0132 36.0575 43.5311 36.0575 44.1698C36.0575 44.8085 35.5004 45.3264 34.8184 45.3264ZM34.8184 43.2179C34.2569 43.2179 33.7985 43.6457 33.7985 44.1698C33.7985 44.6938 34.2569 45.1217 34.8184 45.1217C35.3798 45.1217 35.8382 44.6938 35.8382 44.1698C35.8382 43.6457 35.3798 43.2179 34.8184 43.2179Z" fill="white" stroke="white" stroke-width="0.7" stroke-miterlimit="10"/>
<path d="M29.9124 27.0789H29.2544V26.2601H29.9124V27.0789ZM29.9124 25.4412H29.2544V24.6224H29.9124V25.4412ZM29.9124 23.8036H29.2544V22.9847H29.9124V23.8036ZM29.9124 22.1659H29.2544V21.3471H29.9124V22.1659ZM29.9124 20.5282H29.2544V19.7094H29.9124V20.5282ZM29.9124 18.8906H29.2544V18.0717H29.9124V18.8906ZM29.9124 17.2529H29.2544V16.4341H29.9124V17.2529ZM29.9124 15.6152H29.2544V14.7964H29.9124V15.6152Z" fill="white" stroke="white" stroke-width="0.7" stroke-miterlimit="10"/>
<path d="M30.0221 27.1811H29.1448V26.1575H30.0221V27.1811ZM29.3641 26.9763H29.8028V26.3622H29.3641V26.9763ZM30.0221 25.5434H29.1448V24.5198H30.0221V25.5434ZM29.3641 25.3387H29.8028V24.7246H29.3641V25.3387ZM30.0221 23.9057H29.1448V22.8822H30.0221V23.9057ZM29.3641 23.701H29.8028V23.0869H29.3641V23.701ZM30.0221 22.2681H29.1448V21.2445H30.0221V22.2681ZM29.3641 22.0633H29.8028V21.4492H29.3641V22.0633ZM30.0221 20.6304H29.1448V19.6068H30.0221V20.6304ZM29.3641 20.4257H29.8028V19.8116H29.3641V20.4257ZM30.0221 18.9927H29.1448V17.9692H30.0221V18.9927ZM29.3641 18.788H29.8028V18.1739H29.3641V18.788ZM30.0221 17.3551H29.1448V16.3315H30.0221V17.3551ZM29.3641 17.1503H29.8028V16.5362H29.3641V17.1503ZM30.0221 15.7174H29.1448V14.6938H30.0221V15.7174ZM29.3641 15.5127H29.8028V14.8986H29.3641V15.5127Z" fill="white" stroke="white" stroke-width="0.7" stroke-miterlimit="10"/>
<path d="M52.5612 40.5283H5.43852V41.1424H52.5612V40.5283Z" fill="white" stroke="white" stroke-width="0.7" stroke-miterlimit="10"/>
<path d="M52.671 41.2446H5.32897V40.4258H52.671V41.2446ZM5.54829 41.0399H52.4517V40.6305H5.54829V41.0399Z" fill="white" stroke="white" stroke-width="0.7" stroke-miterlimit="10"/>
<path d="M50.0347 47.7402H7.96506C6.39035 47.7402 5.10954 46.5447 5.10954 45.0749V12.8006C5.10954 11.1138 6.57239 9.74023 8.37299 9.74023V10.3544C6.93646 10.3544 5.76749 11.4516 5.76749 12.8006V45.0749C5.76749 46.2049 6.75223 47.1261 7.96506 47.1261H50.0347C51.2453 47.1261 52.2323 46.207 52.2323 45.0749V12.7863C52.2323 11.4455 51.0633 10.3544 49.6268 10.3544H25.7013V9.74023H49.6268C51.4252 9.74023 52.8902 11.1056 52.8902 12.7863V45.0749C52.8902 46.5447 51.6072 47.7402 50.0347 47.7402Z" fill="white" stroke="white" stroke-width="0.7" stroke-miterlimit="10"/>
<path d="M50.0348 47.8424H7.96518C6.32907 47.8424 5 46.6019 5 45.0747V12.8004C5 11.0563 6.5133 9.6377 8.37312 9.6377H8.48277V10.4565H8.37312C6.99799 10.4565 5.87727 11.5087 5.87727 12.8004V45.0747C5.87727 46.1495 6.81376 47.0236 7.96518 47.0236H50.0348C51.1862 47.0236 52.1227 46.1495 52.1227 45.0747V12.7861C52.1227 11.5026 51.0042 10.4565 49.6269 10.4565H25.5918V9.6377H49.6269C51.4867 9.6377 53 11.0502 53 12.7861V45.0747C53 46.6019 51.6687 47.8424 50.0348 47.8424ZM8.26126 9.84445C6.57471 9.89972 5.21932 11.2037 5.21932 12.8004V45.0747C5.21932 46.4872 6.45189 47.6377 7.96518 47.6377H50.0348C51.5481 47.6377 52.7807 46.4872 52.7807 45.0747V12.7861C52.7807 11.1628 51.3661 9.8424 49.6269 9.8424H25.8111V10.2518H49.6269C51.1226 10.2518 52.342 11.388 52.342 12.7861V45.0747C52.342 46.2621 51.3069 47.2283 50.0348 47.2283H7.96518C6.69314 47.2283 5.65795 46.2621 5.65795 45.0747V12.8004C5.65795 11.4289 6.81596 10.3091 8.26346 10.2539V9.84445H8.26126Z" fill="white" stroke="white" stroke-width="0.7" stroke-miterlimit="10"/>
<path d="M15.0361 19.4655L14.8036 19.2219C14.5908 18.9988 9.5882 13.7296 9.5882 10.6528C9.5882 7.70707 11.8801 5.56787 15.0361 5.56787C18.1921 5.56787 20.4839 7.70707 20.4839 10.6528C20.4839 13.7234 15.4813 18.9988 15.2685 19.2219L15.0361 19.4655ZM15.0361 6.1472C12.2398 6.1472 10.2089 8.04279 10.2089 10.6528C10.2089 13.1523 14.0426 17.5024 15.0361 18.5853C16.0296 17.5003 19.8633 13.1482 19.8633 10.6528C19.8611 8.04279 17.8324 6.1472 15.0361 6.1472ZM15.0361 12.7982C13.8079 12.7982 12.8078 11.8647 12.8078 10.7183C12.8078 9.57197 13.8079 8.6385 15.0361 8.6385C16.2642 8.6385 17.2643 9.56992 17.2643 10.7163C17.2643 11.8647 16.2642 12.7982 15.0361 12.7982ZM15.0361 9.21577C14.15 9.21577 13.4285 9.88926 13.4285 10.7163C13.4285 11.5433 14.15 12.2168 15.0361 12.2168C15.9221 12.2168 16.6415 11.5433 16.6415 10.7163C16.6415 9.88926 15.9221 9.21577 15.0361 9.21577Z" fill="white" stroke="white" stroke-width="0.7" stroke-miterlimit="10"/>
<path d="M35.9261 51.259H22.074V47.126H35.9261V51.259ZM22.732 50.6449H35.2682V47.7401H22.732V50.6449Z" fill="white" stroke="white" stroke-width="0.7" stroke-miterlimit="10"/>
<path d="M36.0358 51.3612H21.9644V47.0234H36.0358V51.3612ZM22.1837 51.1565H35.8165V47.2281H22.1837V51.1565ZM35.3779 50.7471H22.6223V47.6376H35.3779V50.7471ZM22.8416 50.5424H35.1586V47.8423H22.8416V50.5424Z" fill="white" stroke="white" stroke-width="0.7" stroke-miterlimit="10"/>
<path d="M40.1658 53.8978H17.8326V52.4976C17.8326 51.4761 18.7231 50.645 19.8175 50.645H38.1832C39.2776 50.645 40.168 51.4761 40.168 52.4976V53.8978H40.1658ZM18.4906 53.2837H39.5079V52.4976C39.5079 51.816 38.9135 51.2591 38.181 51.2591H19.8175C19.0871 51.2591 18.4906 51.8139 18.4906 52.4976V53.2837V53.2837Z" fill="white" stroke="white" stroke-width="0.7" stroke-miterlimit="10"/>
<path d="M40.275 54H17.7225V52.4974C17.7225 51.4207 18.6612 50.5425 19.817 50.5425H38.1828C39.3364 50.5425 40.2772 51.4186 40.2772 52.4974V54H40.275ZM17.9419 53.7953H40.0557V52.4974C40.0557 51.5333 39.2157 50.7472 38.1806 50.7472H19.817C18.7841 50.7472 17.9419 51.5312 17.9419 52.4974V53.7953V53.7953ZM39.6171 53.3859H18.3805V52.4974C18.3805 51.7584 19.0253 51.1566 19.817 51.1566H38.1828C38.9745 51.1566 39.6193 51.7584 39.6193 52.4974V53.3859H39.6171ZM18.5998 53.1812H39.3978V52.4974C39.3978 51.871 38.8517 51.3613 38.1806 51.3613H19.817C19.1459 51.3613 18.5998 51.871 18.5998 52.4974V53.1812V53.1812Z" fill="white" stroke="white" stroke-width="0.7" stroke-miterlimit="10"/>
<path d="M24.03 11.3509L23.3764 11.2731C23.4093 11.0233 23.4269 10.7797 23.4269 10.5484C23.4269 6.08167 19.8191 2.71422 15.0335 2.71422C13.5773 2.71422 12.2197 3.01719 10.9959 3.61494L10.691 3.07041C12.0113 2.42558 13.472 2.1001 15.0335 2.1001C20.1941 2.1001 24.0848 5.73162 24.0848 10.5484C24.0848 10.8063 24.0673 11.0766 24.03 11.3509Z" fill="white" stroke="white" stroke-width="0.7" stroke-miterlimit="10"/>
<path d="M24.1245 11.4657L23.2538 11.3634L23.2669 11.261C23.2998 11.0154 23.3174 10.7758 23.3174 10.5486C23.3174 6.14125 19.7556 2.81679 15.0337 2.81679C13.595 2.81679 12.255 3.11566 11.0465 3.70522L10.95 3.7523L10.5443 3.02968L10.6408 2.9826C11.9764 2.32958 13.4546 2 15.0359 2C20.2579 2 24.1968 5.67656 24.1968 10.5507C24.1968 10.8106 24.1771 11.085 24.1398 11.3654L24.1245 11.4657ZM23.4994 11.1853L23.9337 11.2364C23.9622 11.001 23.9753 10.7697 23.9753 10.5486C23.9753 5.7912 20.1307 2.20266 15.0337 2.20266C13.527 2.20266 12.1168 2.50972 10.8382 3.11566L11.0421 3.47799C12.2572 2.90276 13.5994 2.61208 15.0337 2.61208C19.8807 2.61208 23.5367 6.02456 23.5367 10.5486C23.5367 10.7533 23.5235 10.9662 23.4994 11.1853Z" fill="white" stroke="white" stroke-width="0.7" stroke-miterlimit="10"/>
<path d="M8.37329 5.66422L7.85351 5.28756C8.23951 4.82287 8.67814 4.39708 9.16284 4.02246L9.58393 4.49534C9.13652 4.84129 8.72859 5.23638 8.37329 5.66422Z" fill="white" stroke="white" stroke-width="0.7" stroke-miterlimit="10"/>
<path d="M8.39301 5.80735L7.69997 5.30582L7.76796 5.22393C8.15834 4.7531 8.60356 4.32322 9.09264 3.94246L9.17598 3.87695L9.73743 4.50745L9.65409 4.57501C9.21326 4.91687 8.81191 5.30377 8.461 5.72752L8.39301 5.80735ZM8.00701 5.27102L8.35353 5.52076C8.67593 5.1441 9.03561 4.79609 9.42819 4.48289L9.14747 4.16764C8.73296 4.49927 8.34915 4.86979 8.00701 5.27102Z" fill="white" stroke="white" stroke-width="0.7" stroke-miterlimit="10"/>
</svg>
