<svg width="44" height="45" viewBox="0 0 44 45" fill="none" xmlns="http://www.w3.org/2000/svg">
<path d="M43 22.5C43 34.3954 33.5769 44 22 44C10.4231 44 1 34.3954 1 22.5C1 10.6046 10.4231 1 22 1C33.5769 1 43 10.6046 43 22.5Z" fill="#323746" stroke="white" stroke-width="2"/>
<path d="M37 22.5C37 30.5081 30.2843 37 22 37C13.7157 37 7 30.5081 7 22.5C7 14.4919 13.7157 8 22 8C30.2843 8 37 14.4919 37 22.5Z" fill="#10BEF0"/>
<path d="M37 22.5C37 30.5081 30.2843 37 22 37C13.7157 37 7 30.5081 7 22.5C7 14.4919 13.7157 8 22 8C30.2843 8 37 14.4919 37 22.5Z" stroke="white"/>
<path d="M19.4025 26.2565L15.3724 22.214L14 23.5809L19.4025 29L31 17.3669L29.6373 16L19.4025 26.2565Z" fill="white"/>
</svg>
