<svg width="59" height="57" viewBox="0 0 59 57" fill="none" xmlns="http://www.w3.org/2000/svg">
<path d="M49.739 47.612L42.315 27.0423C41.3549 24.5224 41.2848 22.941 41.2451 20.3648C41.189 16.782 41.1587 15.8154 41.1423 15.6347L41.0512 14.5859L44.8193 18.8045C46.562 20.7566 47.6809 22.0893 48.7065 24.7758C48.7088 24.7828 56.0673 45.1789 56.0673 45.1789L49.739 47.612ZM41.8735 16.5615C41.8922 17.3639 41.9179 18.6309 41.9436 20.3531C41.9833 22.9246 42.0487 24.3769 42.9691 26.7959L50.1525 46.697L55.1703 44.7684L48.0477 25.0245C47.1156 22.5797 46.1882 21.3925 44.2936 19.2738L41.8735 16.5615Z" fill="white" stroke="white" stroke-miterlimit="10"/>
<path d="M40.7028 12.3574L40.0488 12.6104L41.5756 16.5931L42.2296 16.3402L40.7028 12.3574Z" fill="white" stroke="white" stroke-miterlimit="10"/>
<path d="M51.2742 51.6265L49.5338 47.0583L55.8809 44.6182L57.6213 49.1864L51.2742 51.6265ZM50.4402 47.4642L51.6807 50.7185L56.7195 48.7828L55.4791 45.5285L50.4402 47.4642Z" fill="white" stroke="white" stroke-miterlimit="10"/>
<path d="M55.0939 56.394C54.5496 56.394 54.0334 56.0609 53.8278 55.5189L52.0103 50.9742L52.6598 50.7114L54.4795 55.2631C54.6104 55.6057 54.9888 55.777 55.3252 55.6479L57.2711 54.8995C57.4346 54.8361 57.5631 54.7141 57.6332 54.5546C57.7033 54.395 57.7103 54.2167 57.6472 54.0525L55.9746 49.5476L56.631 49.3013L58.3037 53.8038C58.4321 54.1393 58.4228 54.51 58.2756 54.8408C58.1285 55.1716 57.8621 55.4274 57.5234 55.5564L55.5751 56.3049C55.4186 56.3635 55.2551 56.394 55.0939 56.394Z" fill="white" stroke="white" stroke-miterlimit="10"/>
<path d="M36.6157 11.8521H24.2299V12.5559H36.6157V11.8521Z" fill="white" stroke="white" stroke-miterlimit="10"/>
<path d="M16.4321 14.7758L13.3322 11.6646L13.8274 11.1672L16.4321 13.7809L20.3123 9.88379L20.8075 10.3812L16.4321 14.7758Z" fill="white" stroke="white" stroke-miterlimit="10"/>
<path d="M36.6154 23.8042H24.2297V24.5081H36.6154V23.8042Z" fill="white" stroke="white" stroke-miterlimit="10"/>
<path d="M39.9817 29.1934H24.2297V29.8972H39.9817V29.1934Z" fill="white" stroke="white" stroke-miterlimit="10"/>
<path d="M20.1046 29.8975H14.0355V23.8042H20.1046V29.8975ZM14.7364 29.1936H19.4038V24.5081H14.7364V29.1936Z" fill="white" stroke="white" stroke-miterlimit="10"/>
<path d="M41.3114 41.8518H40.7064V41.1479H41.3114V41.8518ZM39.772 41.8518H38.8376V41.1479H39.772V41.8518ZM37.9031 41.8518H36.9687V41.1479H37.9031V41.8518ZM36.0343 41.8518H35.0999V41.1479H36.0343V41.8518ZM34.1655 41.8518H33.231V41.1479H34.1655V41.8518ZM32.2966 41.8518H31.3622V41.1479H32.2966V41.8518ZM30.4278 41.8518H29.4933V41.1479H30.4278V41.8518ZM28.5589 41.8518H27.6245V41.1479H28.5589V41.8518ZM26.6901 41.8518H25.7557V41.1479H26.6901V41.8518ZM24.8212 41.8518H23.8868V41.1479H24.8212V41.8518Z" fill="white" stroke="white" stroke-miterlimit="10"/>
<path d="M20.1046 44.5454H14.0355V38.4521H20.1046V44.5454ZM14.7364 43.8415H19.4038V39.156H14.7364V43.8415Z" fill="white" stroke="white" stroke-miterlimit="10"/>
<path d="M47.3543 56.394H5.56466V1.19092H47.3543V16.4675H46.6535V1.8948H6.26547V55.6901H46.6535V48.1234H47.3543V56.394Z" fill="white" stroke="white" stroke-miterlimit="10"/>
<path d="M9.25794 9.48242H1V10.1863H9.25794V9.48242Z" fill="white" stroke="white" stroke-miterlimit="10"/>
<path d="M9.25794 18.666H1V19.3699H9.25794V18.666Z" fill="white" stroke="white" stroke-miterlimit="10"/>
<path d="M9.25794 27.8467H1V28.5506H9.25794V27.8467Z" fill="white" stroke="white" stroke-miterlimit="10"/>
<path d="M9.25794 37.0303H1V37.7342H9.25794V37.0303Z" fill="white" stroke="white" stroke-miterlimit="10"/>
<path d="M9.25794 46.2109H1V46.9148H9.25794V46.2109Z" fill="white" stroke="white" stroke-miterlimit="10"/>
<path d="M47.0038 51.1851H5.915V51.8889H47.0038V51.1851Z" fill="white" stroke="white" stroke-miterlimit="10"/>
</svg>
