<svg width="110" height="107" viewBox="0 0 110 107" fill="none" xmlns="http://www.w3.org/2000/svg">
<path d="M102.397 101.882L97.8556 95.4297L105.297 95.272L102.397 101.882ZM99.6918 96.357L102.2 99.9214L103.8 96.2733L99.6918 96.357Z" fill="white" stroke="white" stroke-width="2" stroke-miterlimit="10"/>
<path d="M15.5016 64.8743L14.6579 64.4009L18.0424 58.4057L11.3251 59.7L11.9102 55.5852L8.91029 54.9992L9.09779 54.0493L12.9996 54.8124L12.4759 58.4958L19.9141 57.063L15.5016 64.8743Z" fill="white" stroke="white" stroke-width="0.7" stroke-miterlimit="10"/>
<path d="M7.51696 12.7618C6.17866 12.7618 5.0925 11.68 5.0925 10.347C5.0925 9.01398 6.17866 7.93213 7.51696 7.93213C8.85527 7.93213 9.94143 9.01398 9.94143 10.347C9.94143 11.6767 8.85527 12.7618 7.51696 12.7618ZM7.51696 8.89807C6.71527 8.89807 6.06229 9.54846 6.06229 10.347C6.06229 11.1455 6.71527 11.7959 7.51696 11.7959C8.31866 11.7959 8.97164 11.1455 8.97164 10.347C8.97164 9.54846 8.32189 8.89807 7.51696 8.89807Z" fill="white" stroke="white" stroke-width="0.7" stroke-miterlimit="10"/>
<path d="M93.718 91.5176C93.4626 91.5176 93.2105 91.479 92.9648 91.4017L91.0834 90.8189C85.8724 88.8355 82.6333 84.6112 81.4857 82.8886C77.5904 77.0447 77.4159 68.406 81.0461 60.8781L82.1129 58.6629L84.5276 59.1523C85.7948 59.4099 87.1331 59.4099 88.4003 59.1523C89.6578 58.8979 90.8797 58.3828 91.9368 57.6647L93.718 56.4541L95.4991 57.6647C96.5562 58.3828 97.7814 58.8979 99.0356 59.1523C100.303 59.4099 101.641 59.4099 102.908 59.1523L105.326 58.6629L106.393 60.8781C110.023 68.406 109.849 77.0447 105.953 82.8886C104.803 84.6112 101.57 88.8355 96.359 90.8189L94.4712 91.4049C94.2255 91.4822 93.9733 91.5176 93.718 91.5176ZM91.4131 89.9142L93.2525 90.484C93.5563 90.5774 93.8796 90.5774 94.1867 90.484L96.0422 89.9109C100.962 88.037 104.049 84.0058 105.149 82.3605C108.86 76.7935 109.005 68.5283 105.524 61.3031L104.783 59.7673L103.109 60.1053C101.715 60.3887 100.241 60.3887 98.8481 60.1053C97.4678 59.8252 96.123 59.2585 94.9593 58.4697L93.7244 57.6293L92.4896 58.4697C91.3258 59.2585 89.9811 59.8252 88.5975 60.1053C87.2042 60.3887 85.7302 60.3887 84.3369 60.1053L82.6624 59.7673L81.9221 61.3031C78.4374 68.5315 78.5828 76.7967 82.2971 82.3605C83.3897 83.9994 86.4704 88.0274 91.4131 89.9142Z" fill="white" stroke="white" stroke-width="2" stroke-miterlimit="10"/>
<path d="M92.4412 79.1408L88.4425 75.1579L89.1278 74.4753L92.3313 77.6662L98.7966 68.9502L99.5788 69.5265L92.4412 79.1408Z" fill="white" stroke="white" stroke-width="2" stroke-miterlimit="10"/>
<path d="M100.022 48.8361H92.3636V47.8702H99.0519V42.9954C99.0519 41.1537 97.678 39.5631 95.8581 39.2959C95.6868 39.2669 95.5122 39.254 95.2988 39.254C93.23 39.254 91.5458 40.9348 91.5458 42.9986V45.758H90.576V42.9986C90.576 40.4003 92.6966 38.2881 95.2988 38.2881C95.5704 38.2881 95.7967 38.3074 96.0133 38.3428C98.2923 38.6777 100.022 40.6804 100.022 42.9986V48.8361Z" fill="white" stroke="white" stroke-width="2" stroke-miterlimit="10"/>
<path d="M95.0883 38.2817H86.0272V39.2477H95.0883V38.2817Z" fill="white" stroke="white" stroke-width="2" stroke-miterlimit="10"/>
<path d="M42.6327 96.4215H41.6629V43.2306C41.6629 40.5034 43.8902 38.2817 46.6315 38.2817H74.2865V39.2477H46.6315C44.4268 39.2477 42.6327 41.0347 42.6327 43.2306V96.4215Z" fill="white" stroke="white" stroke-width="2" stroke-miterlimit="10"/>
<path d="M91.5458 42.8379H90.576V54.2005H91.5458V42.8379Z" fill="white" stroke="white" stroke-width="2" stroke-miterlimit="10"/>
<path d="M84.9965 105.376V104.41C88.0708 104.41 90.5728 101.918 90.5728 98.8558V94.4736H91.5426V98.8558C91.5458 102.449 88.6074 105.376 84.9965 105.376Z" fill="white" stroke="white" stroke-width="2" stroke-miterlimit="10"/>
<path d="M84.4338 105.405C84.2334 105.405 84.0362 105.395 83.8358 105.376L39.6717 105.35C37.8001 105.517 36.0997 105.002 34.8842 103.898C33.7884 102.903 33.1839 101.48 33.1839 99.8956V95.9385H79.1517V99.271C79.1517 100.672 79.7918 102.05 80.9135 103.051C81.7702 103.817 82.8143 104.287 83.8875 104.407H84.9963L85.048 105.369C84.8444 105.395 84.6407 105.405 84.4338 105.405ZM34.1569 96.9044V99.8956C34.1569 101.222 34.6353 102.362 35.5404 103.183C36.5555 104.107 38.0005 104.532 39.6071 104.384L39.6523 104.381L81.1042 104.407C80.8133 104.22 80.5321 104.007 80.267 103.769C78.9449 102.584 78.1852 100.945 78.1852 99.271V96.9044H34.1569Z" fill="white" stroke="white" stroke-width="2" stroke-miterlimit="10"/>
<path d="M56.3295 54.0328H49.4892V47.2197H56.3295V54.0328ZM50.459 53.0669H55.3597V48.1857H50.459V53.0669Z" fill="white" stroke="white" stroke-width="2" stroke-miterlimit="10"/>
<path d="M73.2845 54.0328H66.4443V47.2197H73.2845V54.0328ZM67.414 53.0669H72.3147V48.1857H67.414V53.0669Z" fill="white" stroke="white" stroke-width="2" stroke-miterlimit="10"/>
<path d="M56.3295 69.6231H49.4892V62.8101H56.3295V69.6231ZM50.459 68.6572H55.3597V63.776H50.459V68.6572Z" fill="white" stroke="white" stroke-width="2" stroke-miterlimit="10"/>
<path d="M73.2845 69.6231H66.4443V62.8101H73.2845V69.6231ZM67.414 68.6572H72.3147V63.776H67.414V68.6572Z" fill="white" stroke="white" stroke-width="2" stroke-miterlimit="10"/>
<path d="M72.7966 76.4521H49.3214V77.4181H72.7966V76.4521Z" fill="white" stroke="white" stroke-width="2" stroke-miterlimit="10"/>
<path d="M63.6677 82.2964H49.3214V83.2623H63.6677V82.2964Z" fill="white" stroke="white" stroke-width="2" stroke-miterlimit="10"/>
<path d="M72.7966 88.7939H49.3214V89.7599H72.7966V88.7939Z" fill="white" stroke="white" stroke-width="2" stroke-miterlimit="10"/>
<path d="M72.1464 82.2964H68.2349V83.2623H72.1464V82.2964Z" fill="white" stroke="white" stroke-width="2" stroke-miterlimit="10"/>
<path d="M72.4732 57.6133H64.647V58.5792H72.4732V57.6133Z" fill="white" stroke="white" stroke-width="2" stroke-miterlimit="10"/>
<path d="M61.5467 46.7305H60.5769V54.5256H61.5467V46.7305Z" fill="white" stroke="white" stroke-width="2" stroke-miterlimit="10"/>
<path d="M61.5467 63.6182H60.5769V69.4653H61.5467V63.6182Z" fill="white" stroke="white" stroke-width="2" stroke-miterlimit="10"/>
<path d="M52.2596 57.6133H48.9978V58.5792H52.2596V57.6133Z" fill="white" stroke="white" stroke-width="2" stroke-miterlimit="10"/>
<path d="M59.4327 57.6133H56.171V58.5792H59.4327V57.6133Z" fill="white" stroke="white" stroke-width="2" stroke-miterlimit="10"/>
<path d="M80.5479 27.0383C80.0889 27.0383 79.6363 27.0093 79.1902 26.9513L79.313 25.9918C79.7171 26.0434 80.1277 26.0691 80.535 26.0691L80.5479 27.0383ZM81.9056 26.9481L81.7795 25.9918C82.1868 25.9371 82.5941 25.8566 82.9885 25.7536L83.2407 26.6873C82.8043 26.8032 82.3549 26.8902 81.9056 26.9481ZM77.8551 26.6905C77.4187 26.5746 76.9823 26.4297 76.5653 26.2559L76.9371 25.364C77.3153 25.5185 77.7097 25.6538 78.1073 25.7568L77.8551 26.6905ZM84.5305 26.2494L84.1587 25.3575C84.537 25.1998 84.9087 25.0162 85.2643 24.8134L85.7492 25.6505C85.358 25.8727 84.9475 26.0755 84.5305 26.2494ZM75.3401 25.657C74.949 25.4316 74.5675 25.1772 74.2087 24.9035L74.7971 24.1372C75.1236 24.3852 75.4694 24.617 75.825 24.8198L75.3401 25.657ZM86.8806 24.8939L86.289 24.1276C86.6155 23.8797 86.9259 23.606 87.2168 23.3162L87.9021 23.9988C87.5821 24.3175 87.2394 24.617 86.8806 24.8939ZM73.184 24.0117C72.8639 23.6929 72.5601 23.3516 72.2853 22.9942L73.0547 22.405C73.3068 22.7302 73.5784 23.0393 73.8693 23.3291L73.184 24.0117ZM88.8008 22.9781L88.0314 22.3889C88.2803 22.0637 88.5131 21.7192 88.7167 21.365L89.5572 21.848C89.3309 22.2408 89.0756 22.6207 88.8008 22.9781ZM71.5256 21.8673C71.2994 21.4777 71.0957 21.0688 70.9211 20.6534L71.8166 20.2831C71.975 20.6599 72.1592 21.0301 72.3661 21.3843L71.5256 21.8673ZM90.1617 20.6341L89.2663 20.2638C89.4247 19.8871 89.5572 19.4943 89.6639 19.0983L90.6014 19.3462C90.4817 19.7873 90.333 20.2188 90.1617 20.6341ZM70.4815 19.3687C70.3651 18.9341 70.2746 18.4865 70.2132 18.039L71.1733 17.9134C71.2282 18.3191 71.3091 18.7248 71.4157 19.1176L70.4815 19.3687ZM90.8632 18.0196L89.9031 17.8941C89.9548 17.4916 89.9839 17.0762 89.9839 16.6673V16.6287L90.9537 16.6222V16.6705C90.9505 17.1181 90.9214 17.5753 90.8632 18.0196ZM70.1259 16.6866V16.6673C70.1259 16.223 70.155 15.7754 70.21 15.3343L71.1733 15.4567C71.1216 15.8559 71.0957 16.2616 71.0957 16.6641L70.1259 16.6866ZM89.8966 15.4019C89.8417 14.9963 89.7609 14.5906 89.651 14.1977L90.5884 13.9434C90.708 14.3781 90.7985 14.8256 90.8567 15.2732L89.8966 15.4019ZM71.4093 14.2525L70.4718 14.0046C70.5882 13.5699 70.7336 13.1352 70.9082 12.7166L71.8036 13.0837C71.6452 13.4636 71.5127 13.8565 71.4093 14.2525ZM89.2501 13.0354C89.0917 12.6587 88.9075 12.2884 88.7006 11.9375L89.5378 11.4513C89.7673 11.8409 89.971 12.2498 90.1456 12.6651L89.2501 13.0354ZM72.3467 11.9825L71.5062 11.4996C71.7325 11.11 71.9847 10.73 72.2594 10.3694L73.0288 10.9554C72.7831 11.2838 72.5536 11.6284 72.3467 11.9825ZM88.0088 10.9168C87.7566 10.5948 87.4819 10.2825 87.1909 9.99592L87.873 9.31011C88.1931 9.62887 88.4969 9.97017 88.7749 10.3243L88.0088 10.9168ZM73.8434 10.0313L73.1549 9.34875C73.4749 9.02999 73.8176 8.72733 74.1764 8.45364L74.768 9.21673C74.4447 9.46788 74.1344 9.74156 73.8434 10.0313ZM86.2599 9.18454C85.9334 8.93661 85.5876 8.70801 85.232 8.50194L85.7136 7.6648C86.1048 7.89018 86.4862 8.14133 86.8483 8.41501L86.2599 9.18454ZM75.7959 8.53092L75.3078 7.69699C75.699 7.47161 76.1095 7.26876 76.5265 7.09489L76.9015 7.98678C76.52 8.14133 76.1483 8.32807 75.7959 8.53092ZM84.1232 7.96424C83.7417 7.80969 83.3506 7.67768 82.953 7.57142L83.1986 6.63768C83.635 6.7536 84.0715 6.89849 84.4917 7.06914L84.1232 7.96424ZM78.0652 7.58752L77.8131 6.65378C78.2495 6.53787 78.6988 6.44772 79.1482 6.38654L79.2775 7.34282C78.8702 7.39755 78.4629 7.48127 78.0652 7.58752ZM81.7407 7.33638C81.3431 7.28486 80.939 7.26232 80.5382 7.26232L80.5156 6.58617L80.5285 6.29639C80.9811 6.29639 81.4272 6.32536 81.8603 6.3801L81.7407 7.33638Z" fill="white" stroke="white" stroke-width="0.7" stroke-miterlimit="10"/>
<path d="M82.1196 11.9052C82.1196 13.9852 78.9548 13.9852 78.9548 11.9052C78.9548 9.82522 82.1196 9.82522 82.1196 11.9052ZM79.3007 14.8288V22.508H81.8706V14.8288H79.3007Z" fill="white" stroke="white" stroke-width="0.7" stroke-miterlimit="10"/>
<path d="M80.5288 41.3858L75.1497 32.6827L64.7374 32.789C63.551 32.8019 62.4293 32.3511 61.5856 31.5172C60.7419 30.6864 60.2764 29.5756 60.2764 28.3907V5.53024C60.2764 3.03169 62.3162 1 64.8247 1H96.346C98.8545 1 100.894 3.03169 100.894 5.53024V28.1493C100.894 30.6478 98.8545 32.6795 96.346 32.6795H86.1729L80.5288 41.3858ZM75.6863 31.7103L80.5449 39.5731L85.6395 31.7103H96.3395C98.3114 31.7103 99.918 30.1101 99.918 28.146V5.53024C99.918 3.56617 98.3114 1.96594 96.3395 1.96594H64.8182C62.8463 1.96594 61.2397 3.56617 61.2397 5.53024V28.394C61.2397 29.318 61.6018 30.1842 62.2612 30.8346C62.9207 31.485 63.7999 31.8391 64.7212 31.8263L75.6863 31.7103Z" fill="white" stroke="white" stroke-width="0.7" stroke-miterlimit="10"/>
<path d="M36.9727 49.5417H20.9292C18.702 49.5417 16.8885 47.7901 16.8885 45.6329V5.51429C16.8885 3.36025 18.702 1.60547 20.9292 1.60547H41.7603C43.9875 1.60547 45.801 3.35703 45.801 5.51429V33.681H44.8312V5.51429C44.8312 3.89152 43.4541 2.57141 41.7603 2.57141H20.9292C19.2353 2.57141 17.8582 3.89152 17.8582 5.51429V45.6329C17.8582 47.2556 19.2353 48.5757 20.9292 48.5757H36.9727V49.5417Z" fill="white" stroke="white" stroke-width="0.7" stroke-miterlimit="10"/>
<path d="M36.9728 41.6177H17.1536V42.5836H36.9728V41.6177Z" fill="white" stroke="white" stroke-width="0.7" stroke-miterlimit="10"/>
<path d="M45.5328 10.3052H17.1536V11.2711H45.5328V10.3052Z" fill="white" stroke="white" stroke-width="0.7" stroke-miterlimit="10"/>
<path d="M21.3335 34.431C18.909 34.431 16.6074 33.9384 14.7034 32.9048C11.3382 31.0824 9.96436 26.8741 10.0937 23.5159C10.2262 20.0933 11.8102 17.3822 14.3284 16.2617L14.7228 17.1439C12.5505 18.1131 11.1798 20.5086 11.0634 23.5545C10.9438 26.6166 12.1658 30.432 15.1656 32.058C20.2312 34.8013 28.3224 33.4586 33.5916 28.9992L34.2187 29.7365C30.6305 32.776 25.7751 34.431 21.3335 34.431Z" fill="white" stroke="white" stroke-width="0.7" stroke-miterlimit="10"/>
<path d="M34.448 32.7506H33.4782V29.5372H30.6885V28.5713H34.448V32.7506Z" fill="white" stroke="white" stroke-width="0.7" stroke-miterlimit="10"/>
<path d="M29.7153 104.191H3.90927V105.157H29.7153V104.191Z" fill="white" stroke="white" stroke-width="0.7" stroke-miterlimit="10"/>
<path d="M3.5861 105.269C3.56347 105.269 3.54084 105.269 3.51821 105.269C2.13142 105.234 1 104.036 1 102.597V84.2249H1.96979V102.597C1.96979 103.515 2.6745 104.281 3.54407 104.303C3.98371 104.313 4.40072 104.152 4.71428 103.846C5.02785 103.54 5.20241 103.131 5.20241 102.694V70.7018H26.3664L31.1539 65.8721H36.4716V66.838H31.558L26.7705 71.6677H6.17219V102.694C6.17219 103.395 5.89419 104.049 5.3899 104.539C4.90177 105.012 4.26495 105.269 3.5861 105.269Z" fill="white" stroke="white" stroke-width="0.7" stroke-miterlimit="10"/>
<path d="M33.963 83.2623H32.67V82.2964H33.963V83.2623ZM31.3769 83.2623H30.0839V82.2964H31.3769V83.2623ZM28.7909 83.2623H27.4978V82.2964H28.7909V83.2623ZM26.2048 83.2623H24.9117V82.2964H26.2048V83.2623ZM23.6187 83.2623H22.3256V82.2964H23.6187V83.2623ZM21.0326 83.2623H19.7395V82.2964H21.0326V83.2623ZM18.4465 83.2623H17.1534V82.2964H18.4465V83.2623ZM15.8604 83.2623H14.8906V82.2964H15.8604V83.2623Z" fill="white" stroke="white" stroke-width="0.7" stroke-miterlimit="10"/>
<path d="M33.963 88.7939H19.7395V89.7599H33.963V88.7939Z" fill="white" stroke="white" stroke-width="0.7" stroke-miterlimit="10"/>
</svg>
