<svg width="50" height="70" viewBox="0 0 50 70" fill="none" xmlns="http://www.w3.org/2000/svg">
<path d="M25 65.9449C11.767 65.9449 1 55.1778 1 41.9449C1 28.7119 11.767 17.9473 25 17.9473C38.2329 17.9473 49 28.7143 49 41.9473C49 55.1802 38.2329 65.9449 25 65.9449ZM25 18.6662C12.1625 18.6662 1.71892 29.1097 1.71892 41.9473C1.71892 54.7848 12.1625 65.2283 25 65.2283C37.8375 65.2283 48.2811 54.7848 48.2811 41.9473C48.2811 29.1097 37.8375 18.6662 25 18.6662Z" fill="white" stroke="white" stroke-miterlimit="10"/>
<path d="M26.0718 13.649L24.3806 18.0771L25.0522 18.3337L26.7434 13.9055L26.0718 13.649Z" fill="white" stroke="white" stroke-miterlimit="10"/>
<path d="M24.7149 45.2017C23.0446 45.2017 21.6859 43.8429 21.6859 42.175C21.6859 40.5047 23.0446 39.146 24.7125 39.1436C26.3828 39.1436 27.7416 40.5023 27.744 42.1702C27.744 43.8405 26.3876 45.2017 24.7149 45.2017C24.7173 45.2017 24.7149 45.2017 24.7149 45.2017ZM22.4048 42.1726C22.4048 43.4451 23.4424 44.4827 24.7149 44.4827C25.9898 44.4827 27.025 43.4451 27.025 42.1702C27.025 40.8977 25.9874 39.8601 24.7149 39.8601C23.44 39.8625 22.4048 40.9001 22.4048 42.1726Z" fill="white"/>
<path d="M24.7149 45.2017C23.0446 45.2017 21.6859 43.8429 21.6859 42.175C21.6859 40.5047 23.0446 39.146 24.7125 39.1436C26.3828 39.1436 27.7416 40.5023 27.744 42.1702C27.744 43.8405 26.3876 45.2017 24.7149 45.2017ZM24.7149 45.2017C24.7173 45.2017 24.7149 45.2017 24.7149 45.2017ZM22.4048 42.1726C22.4048 43.4451 23.4424 44.4827 24.7149 44.4827C25.9898 44.4827 27.025 43.4451 27.025 42.1702C27.025 40.8977 25.9874 39.8601 24.7149 39.8601C23.44 39.8625 22.4048 40.9001 22.4048 42.1726Z" stroke="white" stroke-miterlimit="10"/>
<path d="M24.7844 59.8126C24.6598 59.8126 24.5496 59.8126 24.4322 59.8102L24.4465 59.0913C24.5592 59.0937 24.6622 59.0937 24.7844 59.0937C24.9857 59.0937 25.1846 59.0889 25.3835 59.0841L25.4099 59.803C25.2038 59.8102 24.9953 59.8126 24.7844 59.8126ZM23.4568 59.7647C23.1333 59.7407 22.805 59.7071 22.4839 59.6664L22.5773 58.9547C22.8865 58.9954 23.2004 59.0266 23.5096 59.0505L23.4568 59.7647ZM26.3876 59.7407L26.3229 59.0242C26.6321 58.9954 26.946 58.9595 27.2551 58.9139L27.3606 59.6257C27.0371 59.6712 26.7111 59.7119 26.3876 59.7407ZM21.5181 59.513C21.1994 59.4531 20.8759 59.3836 20.562 59.3069L20.7321 58.6096C21.0341 58.6839 21.3432 58.751 21.6499 58.8085L21.5181 59.513ZM28.3215 59.4555L28.1777 58.751C28.4821 58.6887 28.7888 58.6168 29.0908 58.5377L29.2729 59.2327C28.959 59.3165 28.6403 59.3908 28.3215 59.4555ZM19.6178 59.0457C19.3063 58.9499 18.9923 58.8444 18.688 58.7342L18.9372 58.0584C19.2296 58.1663 19.5291 58.2669 19.8287 58.358L19.6178 59.0457ZM30.2123 58.9595L29.9894 58.2765C30.2866 58.1806 30.5861 58.0752 30.8737 57.9626L31.1325 58.6336C30.833 58.7486 30.5238 58.8588 30.2123 58.9595ZM17.7797 58.37C17.4826 58.2406 17.183 58.1016 16.8907 57.9554L17.2118 57.3131C17.4922 57.4545 17.7797 57.5863 18.0625 57.7109L17.7797 58.37ZM32.036 58.2549L31.7412 57.6007C32.024 57.4737 32.3068 57.3347 32.5823 57.1909L32.9154 57.8284C32.6255 57.9769 32.3307 58.1207 32.036 58.2549ZM16.028 57.4953C15.7452 57.3347 15.4648 57.1622 15.1916 56.9848L15.5822 56.3809C15.8434 56.5511 16.1142 56.714 16.385 56.8698L16.028 57.4953ZM33.7662 57.3515L33.3995 56.7332C33.6679 56.5751 33.9339 56.4049 34.1927 56.2324L34.5929 56.8291C34.3245 57.0112 34.0465 57.1861 33.7662 57.3515ZM14.384 56.4289C14.1204 56.2372 13.8592 56.0359 13.61 55.8298L14.0653 55.2738C14.305 55.4703 14.5542 55.6644 14.8082 55.8489L14.384 56.4289ZM35.3885 56.2635L34.9548 55.6908C35.204 55.5039 35.4484 55.3074 35.6881 55.1061L36.153 55.6548C35.9062 55.8633 35.6473 56.0694 35.3885 56.2635ZM12.8719 55.1899C12.6323 54.9695 12.395 54.7418 12.1698 54.5093L12.6826 54.0061C12.9007 54.229 13.1259 54.447 13.3584 54.6579L12.8719 55.1899ZM36.8839 55.003L36.3902 54.4806C36.6179 54.2673 36.8408 54.0444 37.054 53.8168L37.5764 54.3128C37.3512 54.5477 37.1187 54.7801 36.8839 55.003ZM11.5036 53.7928C11.2903 53.5484 11.0794 53.2944 10.8805 53.0404L11.446 52.597C11.6378 52.8414 11.8391 53.0859 12.0451 53.3183L11.5036 53.7928ZM38.2283 53.5843L37.6795 53.1194C37.8808 52.8822 38.0797 52.6354 38.2666 52.3885L38.8394 52.8223C38.6452 53.0811 38.4392 53.3375 38.2283 53.5843ZM10.2982 52.2543C10.1112 51.9883 9.93152 51.7127 9.76137 51.4372L10.3725 51.0585C10.5354 51.3221 10.708 51.5857 10.8877 51.8421L10.2982 52.2543ZM39.4097 52.0243L38.813 51.6217C38.9879 51.3629 39.1581 51.0945 39.3162 50.8285L39.9345 51.1975C39.7692 51.4755 39.5942 51.7535 39.4097 52.0243ZM9.27011 50.5936C9.11674 50.3108 8.96577 50.0161 8.82677 49.7237L9.4762 49.4146C9.6104 49.6974 9.75418 49.9777 9.90036 50.2509L9.27011 50.5936ZM40.4138 50.3444L39.7764 50.0113C39.9201 49.7357 40.0591 49.4529 40.1885 49.1678L40.8428 49.4649C40.7086 49.7621 40.5648 50.0568 40.4138 50.3444ZM8.43376 48.8299C8.31155 48.5303 8.19652 48.2236 8.08868 47.9144L8.76926 47.6796C8.87231 47.9744 8.98254 48.2715 9.09996 48.5591L8.43376 48.8299ZM41.2238 48.5615L40.5528 48.3003C40.6654 48.0103 40.7733 47.7107 40.8691 47.416L41.5521 47.6389C41.4514 47.948 41.3412 48.2571 41.2238 48.5615ZM7.79872 46.9798C7.71005 46.6659 7.62857 46.3472 7.55908 46.0309L8.26122 45.8751C8.32832 46.177 8.40501 46.4838 8.49128 46.7833L7.79872 46.9798ZM41.8301 46.6995L41.1351 46.5149C41.2142 46.213 41.2861 45.9063 41.3508 45.6019L42.0553 45.7457C41.9882 46.0644 41.9139 46.3855 41.8301 46.6995ZM7.37216 45.0723C7.31943 44.7512 7.2739 44.4253 7.24035 44.1042L7.95448 44.0275C7.98803 44.3366 8.03117 44.6481 8.08149 44.9573L7.37216 45.0723ZM42.2255 44.7847L41.5137 44.6793C41.5593 44.3726 41.5976 44.0586 41.6264 43.7471L42.3429 43.8142C42.3117 44.1377 42.2734 44.4636 42.2255 44.7847ZM7.15888 43.1288C7.1421 42.8125 7.13251 42.4914 7.13251 42.1727L7.85144 42.1511C7.85144 42.477 7.85863 42.7861 7.8754 43.0905L7.15888 43.1288ZM42.4052 42.8365L41.6863 42.8101C41.6935 42.5992 41.6983 42.3859 41.6983 42.1703C41.6983 42.0696 41.6983 41.9714 41.6959 41.8707L42.4148 41.8563C42.4172 41.9618 42.4172 42.0648 42.4172 42.1703C42.4172 42.3955 42.4124 42.616 42.4052 42.8365ZM7.88019 41.2141L7.16127 41.1734C7.18044 40.8498 7.2068 40.5215 7.24275 40.198L7.95688 40.2771C7.92333 40.5886 7.89697 40.9026 7.88019 41.2141ZM41.6527 40.9337C41.6312 40.6222 41.6 40.3083 41.5593 39.9991L42.2734 39.9081C42.3141 40.2292 42.3477 40.5575 42.3717 40.881L41.6527 40.9337ZM8.08868 39.3497L7.37934 39.2299C7.43207 38.9111 7.49677 38.5876 7.56866 38.2713L8.27081 38.4295C8.19892 38.7338 8.13901 39.0429 8.08868 39.3497ZM41.4155 39.0741C41.358 38.7674 41.2933 38.4582 41.219 38.1563L41.9187 37.9861C41.9954 38.3025 42.0649 38.6236 42.1224 38.9423L41.4155 39.0741ZM8.50086 37.5188L7.8107 37.3223C7.89936 37.0084 8.00001 36.6945 8.10546 36.3901L8.78364 36.625C8.68059 36.9173 8.58713 37.2193 8.50086 37.5188ZM40.9722 37.2528C40.8811 36.9557 40.7828 36.6561 40.675 36.3638L41.3508 36.1169C41.4634 36.4237 41.5665 36.7352 41.6599 37.0443L40.9722 37.2528ZM9.11674 35.7455L8.45054 35.4723C8.57515 35.1704 8.70935 34.8708 8.84834 34.576L9.49777 34.8852C9.36357 35.168 9.23416 35.4579 9.11674 35.7455ZM40.3275 35.4915C40.2029 35.2039 40.0711 34.9187 39.9321 34.6408L40.5767 34.3196C40.7205 34.6096 40.8595 34.9068 40.9889 35.2063L40.3275 35.4915ZM9.92433 34.0512L9.29407 33.7062C9.44984 33.421 9.61759 33.1358 9.78773 32.8602L10.3988 33.2413C10.2359 33.5049 10.0753 33.778 9.92433 34.0512ZM39.4936 33.8116C39.3378 33.5384 39.1749 33.27 39.0071 33.0088L39.611 32.6182C39.7859 32.889 39.9561 33.1718 40.119 33.4545L39.4936 33.8116ZM10.9164 32.4576L10.3269 32.0454C10.5138 31.7794 10.7103 31.5158 10.9116 31.2594L11.4772 31.7052C11.2855 31.9496 11.0962 32.2012 10.9164 32.4576ZM38.4751 32.2372C38.293 31.9855 38.0989 31.7363 37.9024 31.4943L38.4607 31.0414C38.6668 31.293 38.8681 31.5542 39.0574 31.8178L38.4751 32.2372ZM12.0787 30.9838L11.5395 30.5093C11.7552 30.2649 11.978 30.0253 12.2057 29.7928L12.7185 30.2985C12.5005 30.5189 12.2848 30.749 12.0787 30.9838ZM37.2913 30.7801C37.0804 30.5501 36.8623 30.3224 36.6395 30.1044L37.1427 29.5915C37.3752 29.8192 37.6028 30.0564 37.8209 30.2961L37.2913 30.7801ZM13.3967 29.6466L12.9126 29.1146C13.1523 28.8966 13.4015 28.6833 13.6531 28.4772L14.1061 29.0356C13.8664 29.2321 13.6268 29.4382 13.3967 29.6466ZM35.9541 29.4645C35.7216 29.2584 35.4772 29.0571 35.2328 28.863L35.6761 28.2975C35.9325 28.4988 36.1841 28.7096 36.4286 28.9229L35.9541 29.4645ZM14.8513 28.4628L14.4296 27.8805C14.6932 27.6888 14.964 27.5043 15.2372 27.3293L15.6254 27.9332C15.3642 28.1034 15.103 28.2807 14.8513 28.4628ZM34.4779 28.3047C34.2239 28.1249 33.9603 27.9524 33.6943 27.787L34.0729 27.1759C34.3485 27.3485 34.6241 27.5282 34.8901 27.7151L34.4779 28.3047ZM16.4258 27.4491L16.0711 26.8237C16.3515 26.6655 16.6415 26.5097 16.9338 26.3636L17.2549 27.0082C16.9746 27.1472 16.6942 27.2958 16.4258 27.4491ZM18.1033 26.6152L17.8205 25.9538C18.12 25.8244 18.4244 25.7046 18.7287 25.5943L18.9756 26.2701C18.6832 26.3756 18.3908 26.493 18.1033 26.6152ZM19.8646 25.973L19.6561 25.2852C19.9677 25.1917 20.2864 25.1031 20.6003 25.0288L20.7705 25.7285C20.4661 25.8004 20.1618 25.8819 19.8646 25.973ZM21.6859 25.5296L21.5565 24.8227C21.8752 24.7628 22.2011 24.7124 22.5222 24.6717L22.6133 25.3858C22.3042 25.4266 21.9926 25.4745 21.6859 25.5296ZM26.3589 25.3235C26.0497 25.2948 25.7358 25.2732 25.4219 25.2636L25.4482 24.5447C25.7742 24.5567 26.1025 24.5782 26.4236 24.6094L26.3589 25.3235ZM23.5455 25.2924L23.4952 24.5759C23.8187 24.5519 24.147 24.5375 24.4729 24.5327L24.4849 25.2516C24.171 25.2564 23.857 25.2708 23.5455 25.2924Z" fill="white" stroke="white" stroke-miterlimit="10"/>
<path d="M30.5107 24.7702L25.2231 39.3809L25.8991 39.6255L31.1868 25.0149L30.5107 24.7702Z" fill="white" stroke="white" stroke-miterlimit="10"/>
<path d="M4.80782 24.8442C3.77497 23.2865 3.41072 21.4197 3.77977 19.5889C4.15121 17.758 5.21282 16.1788 6.77048 15.1459C8.32814 14.1131 10.1949 13.7488 12.0258 14.1179C13.8566 14.4893 15.4359 15.5509 16.4687 17.1086L15.8696 17.5064C14.9422 16.1093 13.5259 15.1555 11.882 14.8224C10.2381 14.4893 8.56299 14.8176 7.16589 15.745C5.76878 16.6725 4.81501 18.0887 4.48191 19.7327C4.14881 21.3766 4.47712 23.0517 5.40453 24.4488L4.80782 24.8442Z" fill="white" stroke="white" stroke-miterlimit="10"/>
<path d="M44.8998 24.8442L44.3007 24.4464C46.2154 21.5611 45.4246 17.6574 42.5393 15.7426C41.1422 14.8152 39.4671 14.4893 37.8232 14.82C36.1793 15.1531 34.763 16.1045 33.8356 17.504L33.2365 17.1062C34.2693 15.5485 35.8486 14.4869 37.6794 14.1155C39.5103 13.744 41.3771 14.1107 42.9347 15.1435C46.1507 17.2787 47.0326 21.6306 44.8998 24.8442Z" fill="white" stroke="white" stroke-miterlimit="10"/>
<path d="M28.6231 14.8897C28.4242 14.8897 28.2253 14.8538 28.0336 14.7795L24.5277 13.4423C23.677 13.1188 23.2504 12.1626 23.5739 11.3119L23.8399 10.6169C23.9981 10.2048 24.3048 9.87884 24.7074 9.69911C25.11 9.51938 25.5581 9.5074 25.9703 9.66317L29.4763 11.0004C30.327 11.3239 30.7535 12.28 30.43 13.1308L30.164 13.8257C30.0059 14.2379 29.6991 14.5638 29.2965 14.7435C29.0809 14.8418 28.8508 14.8897 28.6231 14.8897ZM25.3808 10.2743C25.2514 10.2743 25.122 10.3006 24.9998 10.3557C24.7721 10.4564 24.5996 10.6409 24.5109 10.8734L24.2449 11.5683C24.0628 12.0476 24.3024 12.5868 24.7841 12.7713L28.29 14.1085C28.5225 14.1972 28.7765 14.19 29.0018 14.0893C29.2294 13.9887 29.402 13.8042 29.4906 13.5717L29.7566 12.8767C29.9388 12.3975 29.6991 11.8583 29.2198 11.6738L25.7139 10.3366C25.6061 10.2958 25.4934 10.2743 25.3808 10.2743Z" fill="white" stroke="white" stroke-miterlimit="10"/>
<path d="M10.358 11.4507L10.1591 10.7606C12.7784 10.0057 14.9711 8.1964 16.1765 5.79281C17.6599 2.83565 20.5355 1 23.6796 1H26.7949C30.0421 1 33.0016 2.80449 34.3364 5.59631C35.422 7.8681 37.3895 9.63425 39.8721 10.5688L39.6181 11.2422C36.9605 10.2429 34.8541 8.34738 33.687 5.90784C32.4696 3.36286 29.7641 1.71892 26.7926 1.71892H23.6772C20.8063 1.71892 18.1775 3.40359 16.8163 6.11633C15.5247 8.69725 13.169 10.6431 10.358 11.4507Z" fill="white" stroke="white" stroke-miterlimit="10"/>
<path d="M10.7798 68.1662L7.01983 66.297L8.41933 58.9473L9.12627 59.0815L7.82742 65.8968L10.5785 67.2628L14.1084 62.8031L14.6716 63.2488L10.7798 68.1662Z" fill="white" stroke="white" stroke-miterlimit="10"/>
<path d="M38.8462 68.4921L34.8897 63.498L35.4553 63.0499L39.0475 67.5887L41.8513 66.194L40.5309 59.2635L41.2354 59.127L42.6589 66.5965L38.8462 68.4921Z" fill="white" stroke="white" stroke-miterlimit="10"/>
<path d="M25.0766 44.8423H24.3577V52.0171H25.0766V44.8423Z" fill="white" stroke="white" stroke-miterlimit="10"/>
<path d="M3.91566 12.3824L3.38394 12.8662L6.25147 16.0175L6.78318 15.5337L3.91566 12.3824Z" fill="white" stroke="white" stroke-miterlimit="10"/>
<path d="M46.0836 12.383L43.2189 15.5303L43.7505 16.0142L46.6152 12.8669L46.0836 12.383Z" fill="white" stroke="white" stroke-miterlimit="10"/>
</svg>
