<svg width="81" height="86" viewBox="0 0 81 86" fill="none" xmlns="http://www.w3.org/2000/svg">
<path d="M60.2487 84.8984C49.4853 84.8984 40.7304 76.2101 40.7304 65.5285C40.7304 54.847 49.4853 46.1587 60.2487 46.1587C71.0122 46.1587 79.767 54.847 79.767 65.5285C79.767 76.207 71.0122 84.8984 60.2487 84.8984ZM60.2487 47.6803C50.3316 47.6803 42.2637 55.6869 42.2637 65.5285C42.2637 75.3702 50.3316 83.3768 60.2487 83.3768C70.1658 83.3768 78.2338 75.3702 78.2338 65.5285C78.2338 55.6869 70.1658 47.6803 60.2487 47.6803Z" fill="white" stroke="white"/>
<path d="M75.0814 53.4322H73.5481V10.4625H58.3751V8.94092H74.3148C74.7379 8.94092 75.0814 9.28175 75.0814 9.70171V53.4322Z" fill="white" stroke="white"/>
<path d="M51.813 8.94092H24.6223V10.4625H51.813V8.94092Z" fill="white" stroke="white"/>
<path d="M45.2475 77.455H2.12014C1.69696 77.455 1.35352 77.1142 1.35352 76.6942V9.70171C1.35352 9.28175 1.69696 8.94092 2.12014 8.94092H18.0598V10.4625H2.88677V75.9335H45.2475V77.455V77.455Z" fill="white" stroke="white"/>
<path d="M21.341 19.7653C19.1086 19.7653 17.2932 17.9638 17.2932 15.7483V4.58291C17.2932 2.36748 19.1086 0.565918 21.341 0.565918C23.5734 0.565918 25.3888 2.36748 25.3888 4.58291V15.7483C25.3888 17.9638 23.5734 19.7653 21.341 19.7653ZM21.341 2.08751C19.955 2.08751 18.8265 3.2074 18.8265 4.58291V15.7483C18.8265 17.1239 19.955 18.2437 21.341 18.2437C22.7271 18.2437 23.8556 17.1239 23.8556 15.7483V4.58291C23.8556 3.2074 22.7271 2.08751 21.341 2.08751Z" fill="white" stroke="white"/>
<path d="M55.0942 19.7653C52.8618 19.7653 51.0464 17.9638 51.0464 15.7483V4.58291C51.0464 2.36748 52.8618 0.565918 55.0942 0.565918C57.3266 0.565918 59.142 2.36748 59.142 4.58291V15.7483C59.142 17.9638 57.3266 19.7653 55.0942 19.7653ZM55.0942 2.08751C53.7081 2.08751 52.5796 3.2074 52.5796 4.58291V15.7483C52.5796 17.1239 53.7081 18.2437 55.0942 18.2437C56.4802 18.2437 57.6087 17.1239 57.6087 15.7483V4.58291C57.6087 3.2074 56.4802 2.08751 55.0942 2.08751Z" fill="white" stroke="white"/>
<path d="M18.0598 42.096H11.4974C11.0743 42.096 10.7308 41.7552 10.7308 41.3352V34.8228C10.7308 34.4028 11.0743 34.062 11.4974 34.062H18.0598C18.4829 34.062 18.8264 34.4028 18.8264 34.8228V41.3352C18.8264 41.7552 18.4829 42.096 18.0598 42.096ZM12.261 40.5744H17.2901V35.5836H12.261V40.5744V40.5744Z" fill="white" stroke="white"/>
<path d="M33.0612 42.096H26.4989C26.0757 42.096 25.7322 41.7552 25.7322 41.3352V34.8228C25.7322 34.4028 26.0757 34.062 26.4989 34.062H33.0612C33.4844 34.062 33.8278 34.4028 33.8278 34.8228V41.3352C33.8278 41.7552 33.4844 42.096 33.0612 42.096ZM27.2624 40.5744H32.2915V35.5836H27.2624V40.5744Z" fill="white" stroke="white"/>
<path d="M18.0598 55.1238H11.4974C11.0743 55.1238 10.7308 54.783 10.7308 54.363V47.8506C10.7308 47.4307 11.0743 47.0898 11.4974 47.0898H18.0598C18.4829 47.0898 18.8264 47.4307 18.8264 47.8506V54.363C18.8264 54.783 18.4829 55.1238 18.0598 55.1238ZM12.261 53.6022H17.2901V48.6114H12.261V53.6022V53.6022Z" fill="white" stroke="white"/>
<path d="M33.0612 55.1238H26.4989C26.0757 55.1238 25.7322 54.783 25.7322 54.363V47.8506C25.7322 47.4307 26.0757 47.0898 26.4989 47.0898H33.0612C33.4844 47.0898 33.8278 47.4307 33.8278 47.8506V54.363C33.8278 54.783 33.4844 55.1238 33.0612 55.1238ZM27.2624 53.6022H32.2915V48.6114H27.2624V53.6022Z" fill="white" stroke="white"/>
<path d="M18.0598 69.0799H11.4974C11.0743 69.0799 10.7308 68.7391 10.7308 68.3191V61.8067C10.7308 61.3867 11.0743 61.0459 11.4974 61.0459H18.0598C18.4829 61.0459 18.8264 61.3867 18.8264 61.8067V68.3191C18.8264 68.7391 18.4829 69.0799 18.0598 69.0799ZM12.261 67.5583H17.2901V62.5675H12.261V67.5583V67.5583Z" fill="white" stroke="white"/>
<path d="M33.0612 69.0799H26.4989C26.0757 69.0799 25.7322 68.7391 25.7322 68.3191V61.8067C25.7322 61.3867 26.0757 61.0459 26.4989 61.0459H33.0612C33.4844 61.0459 33.8278 61.3867 33.8278 61.8067V68.3191C33.8278 68.7391 33.4844 69.0799 33.0612 69.0799ZM27.2624 67.5583H32.2915V62.5675H27.2624V67.5583Z" fill="white" stroke="white"/>
<path d="M48.0626 42.096H41.5003C41.0771 42.096 40.7336 41.7552 40.7336 41.3352V34.8228C40.7336 34.4028 41.0771 34.062 41.5003 34.062H48.0626C48.4858 34.062 48.8292 34.4028 48.8292 34.8228V41.3352C48.8292 41.7552 48.4858 42.096 48.0626 42.096ZM42.2638 40.5744H47.2929V35.5836H42.2638V40.5744Z" fill="white" stroke="white"/>
<path d="M63.064 42.096H56.5017C56.0785 42.096 55.735 41.7552 55.735 41.3352V34.8228C55.735 34.4028 56.0785 34.062 56.5017 34.062H63.064C63.4872 34.062 63.8306 34.4028 63.8306 34.8228V41.3352C63.8306 41.7552 63.4872 42.096 63.064 42.096ZM57.2652 40.5744H62.2943V35.5836H57.2652V40.5744Z" fill="white" stroke="white"/>
<path d="M74.3149 25.6875H2.12015V27.2091H74.3149V25.6875Z" fill="white" stroke="white"/>
<path d="M60.2488 70.0111C57.7588 70.0111 55.7318 67.9996 55.7318 65.5285C55.7318 63.0574 57.7588 61.0459 60.2488 61.0459C62.7388 61.0459 64.7657 63.0574 64.7657 65.5285C64.7657 67.9996 62.7418 70.0111 60.2488 70.0111ZM60.2488 62.5675C58.6021 62.5675 57.2651 63.8943 57.2651 65.5285C57.2651 67.1627 58.6021 68.4895 60.2488 68.4895C61.8955 68.4895 63.2325 67.1596 63.2325 65.5285C63.2325 63.8943 61.8955 62.5675 60.2488 62.5675Z" fill="white" stroke="white"/>
<path d="M61.0154 52.501H59.4822V61.807H61.0154V52.501Z" fill="white" stroke="white"/>
<path d="M75.2502 64.7681H63.9991V66.2897H75.2502V64.7681Z" fill="white" stroke="white"/>
<path d="M60.3623 79.2868C60.3531 79.2868 60.255 79.2868 60.255 79.2868L60.2703 77.7652H60.3531C61.0983 77.7622 61.8435 77.7013 62.5702 77.5735L62.837 79.0707C62.0244 79.2138 61.1933 79.2868 60.3623 79.2868ZM57.6822 79.0373C56.8328 78.876 55.9956 78.6386 55.1922 78.3282L55.7503 76.9101C56.4648 77.187 57.213 77.4 57.9674 77.5431L57.6822 79.0373ZM65.3362 78.3952L64.7996 76.9709C65.5202 76.7031 66.2194 76.3684 66.8787 75.9728L67.6698 77.2753C66.9277 77.7196 66.1427 78.0939 65.3362 78.3952ZM52.877 77.1779C52.1441 76.7275 51.448 76.2071 50.8102 75.632L51.8405 74.506C52.4109 75.0203 53.0303 75.4828 53.6835 75.8876L52.877 77.1779ZM49.0592 73.7391C48.5348 73.0574 48.0718 72.3271 47.6823 71.5632L49.05 70.8755C49.3965 71.5541 49.8105 72.2084 50.2797 72.817L49.0592 73.7391ZM46.7256 69.1743C46.4833 68.3527 46.3147 67.5067 46.2257 66.6515L47.7498 66.4963C47.8295 67.2571 47.9798 68.0149 48.1944 68.7452L46.7256 69.1743ZM47.7222 64.2048L46.1951 64.0861C46.2625 63.231 46.4097 62.3789 46.6305 61.5512L48.1116 61.9437C47.9123 62.6802 47.7805 63.441 47.7222 64.2048ZM49.0837 59.8622L47.6977 59.214L48.7433 57.0107L50.1294 57.6589L49.0837 59.8622Z" fill="white" stroke="white"/>
</svg>
