<svg width="125" height="106" viewBox="0 0 125 106" fill="none" xmlns="http://www.w3.org/2000/svg">
<g clip-path="url(#clip0)">
<path d="M118.275 61.7338C117.938 61.7338 117.662 61.4599 117.662 61.1251C117.662 59.5822 116.908 57.4246 115.647 56.4904C115.203 56.1617 114.835 55.8969 114.586 55.7204C112.841 54.4758 110.962 53.4441 109.002 52.659C108.68 52.5312 108.328 52.5312 108.006 52.659C106.043 53.4441 104.163 54.4758 102.421 55.7204C102.173 55.9 101.802 56.1617 101.36 56.4904C100.793 56.9103 100.333 57.4337 99.9866 58.0485L98.9164 57.455C99.3457 56.6912 99.9222 56.0369 100.628 55.5165C101.078 55.1818 101.455 54.914 101.707 54.7344C103.528 53.432 105.494 52.3547 107.549 51.533C108.165 51.2865 108.846 51.2865 109.462 51.533C111.517 52.3547 113.479 53.432 115.304 54.7344C115.555 54.914 115.932 55.1818 116.383 55.5165C117.849 56.603 118.692 58.721 118.858 60.4891H118.889V61.1251C118.889 61.4629 118.613 61.7338 118.275 61.7338Z" fill="white"/>
<path d="M117.438 32.3641C117.279 32.0537 116.972 31.8407 116.616 31.8012C115.886 31.7129 115.227 31.6764 114.595 31.6733C112.568 31.6794 110.287 32.1176 108.079 32.5437C106.025 32.9363 104.083 33.3106 102.504 33.3106C101.983 33.3106 101.443 33.2984 100.907 33.274C100.48 33.2527 100.088 33.4658 99.8915 33.8279C99.7014 34.1687 99.7259 34.5796 99.9559 34.8991C100.916 36.2411 102.513 38.1097 104.666 39.3604L104.764 39.4182C106.159 40.2308 107.064 41.1011 107.309 41.8649C107.45 42.3032 107.861 42.5953 108.334 42.5953C108.809 42.5953 109.223 42.2971 109.358 41.8528C109.674 40.8272 110.925 39.6069 111.955 39.0165C114.062 37.8084 116.003 35.7786 117.417 33.2984C117.582 33.0093 117.588 32.6593 117.438 32.3641ZM111.342 37.9636C110.207 38.6118 108.879 39.8625 108.327 41.1163C107.877 40.1669 106.889 39.2448 105.384 38.3683L105.289 38.3136C103.479 37.2606 102.087 35.7147 101.182 34.5035C101.627 34.5187 102.072 34.5278 102.507 34.5278C104.2 34.5278 106.196 34.1444 108.312 33.7366C110.462 33.3227 112.688 32.8967 114.598 32.8906C115.092 32.8876 115.62 32.918 116.187 32.9758C114.896 35.1426 113.185 36.9076 111.342 37.9636Z" fill="white"/>
<path d="M106.252 42.4517C106.27 43.5777 105.654 44.6245 104.642 45.2058L104.611 45.221C103.492 45.8631 102.458 46.6269 101.538 47.4882L100.698 46.5995C101.686 45.6744 102.799 44.8588 103.998 44.168L104.025 44.1528C104.663 43.7846 105.037 43.1668 105.025 42.4943C105.013 41.8278 104.645 41.2344 104.035 40.8814L103.93 40.8206C102.13 39.7767 100.579 38.4773 99.3152 36.9892V34.9746C100.615 36.8766 102.391 38.5199 104.55 39.7707L104.654 39.8315C105.635 40.4006 106.233 41.3775 106.252 42.4517Z" fill="white"/>
<path d="M121.284 21.4236V26.8557C121.284 32.5586 118.125 37.7715 112.835 40.7934C112.191 41.1616 111.817 41.7672 111.82 42.4276C111.82 43.0788 112.185 43.6814 112.799 44.0405L112.989 44.15C118.183 47.1841 121.284 52.3636 121.284 57.9995V61.4353H120.057V57.9995C120.057 52.7987 117.181 48.0118 112.366 45.1999L112.176 45.0873C111.186 44.5091 110.594 43.514 110.594 42.4276C110.591 41.329 111.195 40.3278 112.204 39.7496C117.129 36.9347 120.057 32.1204 120.057 26.8557V22.0322H96.7853V26.9104C96.7853 27.8569 96.8804 28.7911 97.0674 29.701H95.8163C95.6446 28.7911 95.5587 27.8569 95.5587 26.9104V21.4236C95.5587 21.0858 95.8347 20.8149 96.172 20.8149H120.67C120.689 20.8149 120.707 20.8149 120.726 20.818H120.732C121.044 20.8484 121.284 21.1071 121.284 21.4236Z" fill="white"/>
<path d="M124.387 17.772H92.6301C92.4676 17.772 92.3112 17.8359 92.1946 17.9485C92.0812 18.0641 92.0168 18.2193 92.0168 18.3806V21.4238C92.0168 21.7585 92.2897 22.0324 92.6301 22.0324H96.7852L120.057 22.0355H124.387C124.549 22.0355 124.706 21.9685 124.822 21.8559C124.936 21.7403 125 21.5881 125 21.4268V18.3806C125 18.0459 124.727 17.772 124.387 17.772ZM123.774 20.8182H120.725L96.1719 20.8151H93.2434V18.9892H123.774V20.8182Z" fill="white"/>
<path d="M109.033 49.3296H107.806V50.8512H109.033V49.3296Z" fill="white"/>
<path d="M109.033 46.2837H107.806V47.8053H109.033V46.2837Z" fill="white"/>
<path d="M109.033 43.2402H107.806V44.7618H109.033V43.2402Z" fill="white"/>
<path d="M90.4745 7.48318C90.404 7.26407 90.2108 7.10278 89.9808 7.0693L83.5289 6.13809L80.6433 0.337793C80.5421 0.130857 80.3274 0 80.0944 0C79.8613 0 79.6467 0.130857 79.5455 0.337793L76.6599 6.13809L70.208 7.0693C69.978 7.10278 69.7848 7.26407 69.7143 7.48318C69.6407 7.70533 69.702 7.94574 69.8676 8.10703L74.5379 12.6231L73.4339 18.9986C73.3941 19.2268 73.4891 19.4581 73.6793 19.595C73.8663 19.732 74.1178 19.7472 74.3232 19.6407L80.0944 16.631L85.8656 19.6407C85.9545 19.6894 86.0526 19.7107 86.1507 19.7107C86.2765 19.7107 86.4022 19.6711 86.5095 19.595C86.6996 19.4581 86.7947 19.2268 86.7548 18.9986L85.6509 12.6231L90.3212 8.10703C90.4868 7.94574 90.5481 7.70533 90.4745 7.48318ZM84.5654 11.9749C84.4212 12.1149 84.3538 12.3157 84.3875 12.5135L85.335 17.9913L80.3796 15.4046C80.2017 15.3102 79.9871 15.3102 79.8092 15.4046L74.8537 17.9913L75.8013 12.5135C75.835 12.3157 75.7676 12.1149 75.6234 11.9749L71.6155 8.0979L77.1536 7.29754C77.356 7.27015 77.5277 7.14538 77.6167 6.96584L80.0944 1.98415L82.5721 6.96584C82.6611 7.14538 82.8328 7.27015 83.0352 7.29754L88.5733 8.0979L84.5654 11.9749Z" fill="white"/>
<path d="M14.2625 51.2287C12.0822 47.9056 10.6286 44.2233 9.93868 40.2824C8.9574 34.6586 9.64123 28.9313 11.9166 23.7153L13.042 24.1992C10.8617 29.1961 10.2055 34.686 11.1469 40.0755C11.8062 43.8521 13.1984 47.3791 15.2897 50.5653L14.2625 51.2287Z" fill="white"/>
<path d="M66.5217 29.4671C63.3601 14.6924 49.1285 5.14295 34.1241 7.72052C28.5522 8.67912 23.4649 11.2293 19.4079 15.1002L18.5585 14.2238C22.7933 10.1825 28.1045 7.51967 33.9156 6.52151C41.4684 5.22207 49.1193 6.8593 55.4608 11.1289C61.784 15.3863 66.1415 21.8104 67.7238 29.2145L66.5217 29.4671Z" fill="white"/>
<path d="M20.6867 51.4603C17.6294 47.9028 15.4675 43.5298 14.7591 39.4549C13.7226 33.5177 14.9308 27.4435 18.1568 22.3462L19.1963 22.9944C16.1298 27.8361 14.983 33.609 15.9673 39.248C16.6419 43.1128 18.7026 47.2759 21.622 50.669L20.6867 51.4603Z" fill="white"/>
<path d="M61.505 29.4944C58.4967 17.9242 46.8348 10.4624 34.9582 12.5043C29.2024 13.4934 24.0691 16.5609 20.4996 21.1439L19.5306 20.3984C23.2871 15.5749 28.6933 12.3461 34.7528 11.3053C40.8643 10.2524 47.0954 11.5214 52.2962 14.8689C57.4694 18.2012 61.1615 23.2863 62.6948 29.1901L61.505 29.4944Z" fill="white"/>
<path d="M38.951 22.2944V23.5117C39.5336 23.5117 40.1193 23.5543 40.6927 23.6395L40.8737 22.4344C40.2389 22.3431 39.5949 22.2944 38.951 22.2944ZM37.0283 22.4344C36.9179 22.4496 36.8105 22.4679 36.7002 22.4862C36.1758 22.5774 35.6514 22.6992 35.1454 22.8513L35.4981 24.0169C35.9581 23.8799 36.4334 23.7673 36.9117 23.6852C37.0099 23.67 37.108 23.6547 37.2061 23.6395L37.0283 22.4344ZM33.3454 23.536C32.7658 23.8069 32.1985 24.1234 31.6649 24.4794L32.3488 25.4898C32.8302 25.1702 33.3423 24.8842 33.8667 24.6377L33.3454 23.536ZM30.147 25.6541C29.8281 25.9432 29.5215 26.2475 29.2301 26.5671C29.0891 26.7223 28.9511 26.8805 28.8162 27.0418L29.7637 27.8148C29.917 27.6291 30.0765 27.4496 30.2421 27.2761C30.4721 27.0266 30.7174 26.7862 30.9688 26.5579L30.147 25.6541Z" fill="white"/>
<path d="M14.5247 10.7956L13.3161 11.0034L14.497 17.7679L15.7056 17.5601L14.5247 10.7956Z" fill="white"/>
<path d="M11.8597 8.92991L10.6512 9.1377L11.8321 15.9022L13.0406 15.6944L11.8597 8.92991Z" fill="white"/>
<path d="M12.2079 24.6621C12.0822 24.6621 11.9595 24.6256 11.8553 24.5495L0.260802 16.4425C0.0706785 16.3086 -0.0274496 16.0803 0.00934843 15.8521C0.0461465 15.6239 0.208671 15.4352 0.42946 15.3652L6.10863 13.5728L6.47968 14.7322L1.97498 16.1534L12.3183 23.387L17.7399 21.8259L18.0803 22.9944L12.3735 24.6347C12.3244 24.653 12.2662 24.6621 12.2079 24.6621Z" fill="white"/>
<path d="M18.7733 20.508L18.4237 14.7929L8.11109 7.58057L8.39627 12.2518L7.17274 12.3249L6.81089 6.39068C6.79556 6.15636 6.91822 5.93725 7.12367 5.82161C7.32913 5.70901 7.58365 5.72118 7.77684 5.85508L19.3713 13.9652C19.5246 14.0717 19.6197 14.2421 19.6289 14.4247L19.9969 20.4319L18.7733 20.508Z" fill="white"/>
<path d="M5.49837 11.6433C5.52904 11.6372 5.55664 11.6341 5.5873 11.6341C5.6885 11.6341 5.78969 11.6646 5.87555 11.7254L11.8307 15.8916L11.846 15.9007L14.4955 17.754L14.5108 17.7631L31.5821 29.7015H33.7102L30.242 27.2761L29.2301 26.567L24.9523 23.5756L23.9465 22.8726L20.8493 20.7059L19.9784 20.0972L19.8435 20.0029L18.6966 19.1995L15.6178 17.048L14.2011 16.0559L12.9531 15.1855L11.5363 14.1935L8.38396 11.9872L7.09602 11.0894L6.58392 10.7303C6.20367 10.4656 5.74369 10.3651 5.28985 10.4412C4.83294 10.5203 4.43736 10.7699 4.17058 11.1472C3.6186 11.9202 3.80873 12.9944 4.58762 13.5392L5.09359 13.8922L6.35086 14.7717L16.8168 22.0936L17.8625 22.8239L18.0802 22.9761L18.8714 23.5269L27.6968 29.7015H29.9507C20.2667 22.9882 5.29292 12.5441 5.29292 12.5441C5.066 12.3858 5.0108 12.0724 5.17332 11.8472C5.24999 11.7376 5.36651 11.6646 5.49837 11.6433Z" fill="white"/>
<path d="M21.8582 25.8853C21.5516 26.433 21.2694 27.0021 21.018 27.5742L22.1434 28.0611C22.3795 27.5255 22.6432 26.9899 22.9315 26.4787L21.8582 25.8853ZM20.3464 29.3362C20.1502 29.9327 19.9846 30.5444 19.8497 31.156L21.0487 31.4178C21.1744 30.8456 21.3308 30.2705 21.5117 29.7136L20.3464 29.3362ZM19.5338 33.0154C19.4602 33.6362 19.4173 34.2692 19.405 34.8961L20.6316 34.9205C20.6408 34.3331 20.6837 33.7397 20.7512 33.1585L19.5338 33.0154ZM20.8984 38.3988C20.8003 37.8328 20.7267 37.2546 20.6807 36.6855L19.4602 36.7798C19.5062 37.3885 19.5829 38.0032 19.6902 38.6027L19.6963 38.6483L20.9045 38.4384L20.8984 38.3988ZM21.297 40.1608L20.1134 40.4864C20.282 41.089 20.4814 41.6915 20.7083 42.2758L21.8521 41.8376C21.6405 41.2898 21.4534 40.7268 21.297 40.1608ZM22.5727 43.4535L21.4749 43.9983C21.757 44.5582 22.0729 45.109 22.4071 45.6385L23.4467 44.9903C23.1308 44.4943 22.8364 43.9769 22.5727 43.4535ZM24.4678 46.4358L23.4988 47.1814C23.8852 47.6744 24.3022 48.1583 24.7346 48.6117L25.627 47.7748C25.2191 47.3488 24.8297 46.8984 24.4678 46.4358Z" fill="white"/>
<path d="M38.7852 15.9097C38.1535 15.9158 37.5156 15.9523 36.8901 16.0192L37.0188 17.2304C37.6046 17.1665 38.2025 17.133 38.7944 17.1269L38.7852 15.9097ZM40.6833 15.9857L40.5729 17.1969C41.1617 17.2487 41.7566 17.3308 42.3362 17.4404L42.5631 16.2444C41.9437 16.1288 41.312 16.0405 40.6833 15.9857ZM35.0134 16.3083C34.3939 16.4331 33.7776 16.5883 33.1735 16.7739L33.5353 17.9364C34.0995 17.766 34.6791 17.6169 35.2587 17.5013L35.0134 16.3083ZM44.4122 16.6857L44.0687 17.8543C44.633 18.0186 45.2003 18.2134 45.7492 18.4325L46.2061 17.3034C45.6204 17.0691 45.0163 16.8622 44.4122 16.6857ZM31.3887 17.413C30.8061 17.6565 30.2296 17.9273 29.6746 18.2255L30.2572 19.2967C30.7754 19.0198 31.3151 18.7642 31.861 18.5359L31.3887 17.413ZM47.9325 18.0886L47.3652 19.1689C47.8927 19.4398 48.4079 19.738 48.9046 20.0575L49.5731 19.0381C49.0426 18.6972 48.4906 18.3777 47.9325 18.0886ZM28.0493 19.1963C27.5249 19.5463 27.0128 19.9267 26.5283 20.3223L27.3072 21.2626C27.7641 20.8914 28.2425 20.5353 28.7331 20.2066L28.0493 19.1963ZM51.1125 20.1397L50.3489 21.0892C50.812 21.4574 51.2597 21.85 51.6859 22.2547L52.5384 21.3813C52.0877 20.9461 51.6062 20.5292 51.1125 20.1397ZM25.1208 21.5913C24.713 21.9991 24.3174 22.4282 23.9463 22.8725C23.9126 22.909 23.8789 22.9485 23.8482 22.9881L24.7958 23.7611C24.8479 23.7002 24.9 23.6363 24.9521 23.5754C25.2803 23.1859 25.6298 22.8086 25.9917 22.4495L25.1208 21.5913ZM53.8356 22.7568L52.9003 23.545C53.2836 23.9924 53.6485 24.464 53.9858 24.9418L54.9947 24.248C54.6359 23.7367 54.2465 23.2346 53.8356 22.7568ZM55.9975 25.8456L54.9272 26.4391C55.2155 26.9503 55.4823 27.4829 55.7184 28.0215L56.8407 27.5346C56.5893 26.9625 56.3072 26.3934 55.9975 25.8456Z" fill="white"/>
<path d="M122.446 68.572H121.219V61.9287H99.3152V60.7114H121.833C122.17 60.7114 122.446 60.9853 122.446 61.3201V68.572Z" fill="white"/>
<path d="M121.832 106H95.2273V104.783H121.219V92.5615H122.446V105.392C122.446 105.726 122.17 106 121.832 106Z" fill="white"/>
<path d="M122.446 83.6357H121.219V86.4263H122.446V83.6357Z" fill="white"/>
<path d="M122.446 74.1499H121.219V78.0543H122.446V74.1499Z" fill="white"/>
<path d="M124.132 68.5719V74.15C124.132 74.4878 123.856 74.7587 123.519 74.7587H119.073V102.601C119.073 102.935 118.8 103.209 118.459 103.209H97.0981C96.9356 103.209 96.7823 103.145 96.6657 103.03C96.5523 102.917 96.4848 102.762 96.4848 102.601V99.9806L97.7114 98.9215V101.992H117.846V74.15C117.846 73.8153 118.122 73.5414 118.459 73.5414H122.906V69.1805H118.459C118.122 69.1805 117.846 68.9097 117.846 68.5719V64.7192H99.4501V63.502H118.459C118.8 63.502 119.073 63.7728 119.073 64.1106V67.9633H123.519C123.856 67.9633 124.132 68.2371 124.132 68.5719Z" fill="white"/>
<path d="M123.519 84.2441H118.459V83.0269H122.906V78.666H118.459V77.4487H123.519C123.856 77.4487 124.132 77.7226 124.132 78.0574V83.6355C124.132 83.9703 123.856 84.2441 123.519 84.2441Z" fill="white"/>
<path d="M123.519 92.6099H118.459V91.3926H122.906V87.0317H118.459V85.8145H123.519C123.856 85.8145 124.132 86.0883 124.132 86.4231V92.0012C124.132 92.339 123.856 92.6099 123.519 92.6099Z" fill="white"/>
<path d="M112.605 70.4375H102.869V71.6548H112.605V70.4375Z" fill="white"/>
<path d="M112.605 76.6455H102.869V77.8628H112.605V76.6455Z" fill="white"/>
<path d="M112.605 82.8506H102.869V84.0679H112.605V82.8506Z" fill="white"/>
<path d="M112.605 89.0557H102.869V90.2729H112.605V89.0557Z" fill="white"/>
<path d="M112.605 95.2607H102.869V96.478H112.605V95.2607Z" fill="white"/>
<path d="M2.36754 104.278C2.20502 104.278 2.05169 104.214 1.93517 104.101C1.81864 103.986 1.75424 103.83 1.75424 103.669V51.0647C1.75424 50.7299 2.03023 50.4561 2.36754 50.4561H26.7095V51.6733H2.98084V103.054L40.472 102.793L40.4781 101.165L41.7047 101.171L41.6955 103.401C41.6955 103.736 41.4226 104.004 41.0853 104.007L2.37061 104.278H2.36754Z" fill="white"/>
<path d="M40.4963 97.1261L40.4717 103.395L41.6983 103.4L41.7229 97.1308L40.4963 97.1261Z" fill="white"/>
<path d="M15.7866 66.323H8.40554C8.06822 66.323 7.79224 66.0491 7.79224 65.7143V58.3894C7.79224 58.0546 8.06822 57.7808 8.40554 57.7808H13.7719V58.998H9.01884V65.1057H15.1733V63.0515H16.3999V65.7143C16.3999 66.0491 16.1239 66.323 15.7866 66.323Z" fill="white"/>
<path d="M27.1911 63.7729H21.1531V64.9902H27.1911V63.7729Z" fill="white"/>
<path d="M12.5788 64.1806C12.4163 64.1806 12.2599 64.1167 12.1465 64.0011L9.41728 61.2926L10.2851 60.4314L12.5788 62.7077L17.4393 57.8843L18.3071 58.7455L13.0112 64.0011C12.8978 64.1167 12.7414 64.1806 12.5788 64.1806Z" fill="white"/>
<path d="M15.7866 80.3064H8.40554C8.06822 80.3064 7.79224 80.0325 7.79224 79.6977V72.3728C7.79224 72.038 8.06822 71.7642 8.40554 71.7642H13.7719V72.9814H9.01884V79.0891H15.1733V77.0349H16.3999V79.6977C16.3999 80.0325 16.1239 80.3064 15.7866 80.3064Z" fill="white"/>
<path d="M27.1205 73.0942H21.1531V74.3115H27.1205V73.0942Z" fill="white"/>
<path d="M27.1911 77.7563H21.1531V78.9736H27.1911V77.7563Z" fill="white"/>
<path d="M12.5788 78.0058C12.4163 78.0058 12.2599 77.9419 12.1465 77.8263L9.41728 75.1178L10.2851 74.2566L12.5788 76.5329L17.4393 71.7095L18.3071 72.5707L13.0112 77.8263C12.8978 77.9419 12.7414 78.0058 12.5788 78.0058Z" fill="white"/>
<path d="M27.194 89.7437H8.40553V90.9609H27.194V89.7437Z" fill="white"/>
<path d="M17.7982 94.4028H8.40553V95.6201H17.7982V94.4028Z" fill="white"/>
<path d="M27.1908 59.1138H25.1792V60.331H27.1908V59.1138Z" fill="white"/>
<path d="M23.1647 59.1138H21.1531V60.331H23.1647V59.1138Z" fill="white"/>
<path d="M14.4436 85.0815H12.4319V86.2988H14.4436V85.0815Z" fill="white"/>
<path d="M10.4172 85.0815H8.40553V86.2988H10.4172V85.0815Z" fill="white"/>
<path d="M22.496 85.0815H20.4844V86.2988H22.496V85.0815Z" fill="white"/>
<path d="M18.4696 85.0815H16.458V86.2988H18.4696V85.0815Z" fill="white"/>
<path d="M26.5192 85.0815H24.5076V86.2988H26.5192V85.0815Z" fill="white"/>
<path d="M85.2488 104.898C74.4854 104.898 65.7305 96.2101 65.7305 85.5285C65.7305 74.847 74.4854 66.1587 85.2488 66.1587C96.0123 66.1587 104.767 74.847 104.767 85.5285C104.767 96.207 96.0123 104.898 85.2488 104.898ZM85.2488 67.6803C75.3317 67.6803 67.2638 75.6869 67.2638 85.5285C67.2638 95.3702 75.3317 103.377 85.2488 103.377C95.1659 103.377 103.234 95.3702 103.234 85.5285C103.234 75.6869 95.1659 67.6803 85.2488 67.6803Z" fill="white" stroke="white"/>
<path d="M100.081 73.4322H98.5482V30.4625H83.3752V28.9409H99.3149C99.738 28.9409 100.081 29.2818 100.081 29.7017V73.4322Z" fill="white" stroke="white"/>
<path d="M76.8131 28.9409H49.6223V30.4625H76.8131V28.9409Z" fill="white" stroke="white"/>
<path d="M70.2476 97.455H27.1202C26.6971 97.455 26.3536 97.1142 26.3536 96.6943V29.7017C26.3536 29.2818 26.6971 28.9409 27.1202 28.9409H43.0599V30.4625H27.8869V95.9335H70.2476V97.455Z" fill="white" stroke="white"/>
<path d="M46.3411 39.7653C44.1087 39.7653 42.2933 37.9638 42.2933 35.7483V24.5829C42.2933 22.3675 44.1087 20.5659 46.3411 20.5659C48.5735 20.5659 50.3889 22.3675 50.3889 24.5829V35.7483C50.3889 37.9638 48.5735 39.7653 46.3411 39.7653ZM46.3411 22.0875C44.955 22.0875 43.8266 23.2074 43.8266 24.5829V35.7483C43.8266 37.1239 44.955 38.2437 46.3411 38.2437C47.7272 38.2437 48.8556 37.1239 48.8556 35.7483V24.5829C48.8556 23.2074 47.7272 22.0875 46.3411 22.0875Z" fill="white" stroke="white"/>
<path d="M80.0943 39.7653C77.8619 39.7653 76.0465 37.9638 76.0465 35.7483V24.5829C76.0465 22.3675 77.8619 20.5659 80.0943 20.5659C82.3267 20.5659 84.1421 22.3675 84.1421 24.5829V35.7483C84.1421 37.9638 82.3267 39.7653 80.0943 39.7653ZM80.0943 22.0875C78.7082 22.0875 77.5797 23.2074 77.5797 24.5829V35.7483C77.5797 37.1239 78.7082 38.2437 80.0943 38.2437C81.4803 38.2437 82.6088 37.1239 82.6088 35.7483V24.5829C82.6088 23.2074 81.4803 22.0875 80.0943 22.0875Z" fill="white" stroke="white"/>
<path d="M43.0599 62.096H36.4975C36.0744 62.096 35.7309 61.7552 35.7309 61.3352V54.8228C35.7309 54.4028 36.0744 54.062 36.4975 54.062H43.0599C43.483 54.062 43.8265 54.4028 43.8265 54.8228V61.3352C43.8265 61.7552 43.483 62.096 43.0599 62.096ZM37.2611 60.5744H42.2902V55.5836H37.2611V60.5744Z" fill="white" stroke="white"/>
<path d="M58.0613 62.096H51.499C51.0758 62.096 50.7323 61.7552 50.7323 61.3352V54.8228C50.7323 54.4028 51.0758 54.062 51.499 54.062H58.0613C58.4845 54.062 58.8279 54.4028 58.8279 54.8228V61.3352C58.8279 61.7552 58.4845 62.096 58.0613 62.096ZM52.2625 60.5744H57.2916V55.5836H52.2625V60.5744Z" fill="white" stroke="white"/>
<path d="M43.0599 75.1238H36.4975C36.0744 75.1238 35.7309 74.783 35.7309 74.363V67.8506C35.7309 67.4307 36.0744 67.0898 36.4975 67.0898H43.0599C43.483 67.0898 43.8265 67.4307 43.8265 67.8506V74.363C43.8265 74.783 43.483 75.1238 43.0599 75.1238ZM37.2611 73.6022H42.2902V68.6114H37.2611V73.6022Z" fill="white" stroke="white"/>
<path d="M58.0613 75.1238H51.499C51.0758 75.1238 50.7323 74.783 50.7323 74.363V67.8506C50.7323 67.4307 51.0758 67.0898 51.499 67.0898H58.0613C58.4845 67.0898 58.8279 67.4307 58.8279 67.8506V74.363C58.8279 74.783 58.4845 75.1238 58.0613 75.1238ZM52.2625 73.6022H57.2916V68.6114H52.2625V73.6022Z" fill="white" stroke="white"/>
<path d="M43.0599 89.0799H36.4975C36.0744 89.0799 35.7309 88.7391 35.7309 88.3191V81.8067C35.7309 81.3867 36.0744 81.0459 36.4975 81.0459H43.0599C43.483 81.0459 43.8265 81.3867 43.8265 81.8067V88.3191C43.8265 88.7391 43.483 89.0799 43.0599 89.0799ZM37.2611 87.5583H42.2902V82.5675H37.2611V87.5583Z" fill="white" stroke="white"/>
<path d="M58.0613 89.0799H51.499C51.0758 89.0799 50.7323 88.7391 50.7323 88.3191V81.8067C50.7323 81.3867 51.0758 81.0459 51.499 81.0459H58.0613C58.4845 81.0459 58.8279 81.3867 58.8279 81.8067V88.3191C58.8279 88.7391 58.4845 89.0799 58.0613 89.0799ZM52.2625 87.5583H57.2916V82.5675H52.2625V87.5583Z" fill="white" stroke="white"/>
<path d="M73.0627 62.096H66.5004C66.0772 62.096 65.7337 61.7552 65.7337 61.3352V54.8228C65.7337 54.4028 66.0772 54.062 66.5004 54.062H73.0627C73.4859 54.062 73.8293 54.4028 73.8293 54.8228V61.3352C73.8293 61.7552 73.4859 62.096 73.0627 62.096ZM67.2639 60.5744H72.293V55.5836H67.2639V60.5744Z" fill="white" stroke="white"/>
<path d="M88.0641 62.096H81.5018C81.0786 62.096 80.7351 61.7552 80.7351 61.3352V54.8228C80.7351 54.4028 81.0786 54.062 81.5018 54.062H88.0641C88.4873 54.062 88.8307 54.4028 88.8307 54.8228V61.3352C88.8307 61.7552 88.4873 62.096 88.0641 62.096ZM82.2653 60.5744H87.2944V55.5836H82.2653V60.5744Z" fill="white" stroke="white"/>
<path d="M99.315 45.6875H27.1202V47.2091H99.315V45.6875Z" fill="white" stroke="white"/>
<path d="M85.2489 90.0111C82.7589 90.0111 80.7319 87.9996 80.7319 85.5285C80.7319 83.0574 82.7589 81.0459 85.2489 81.0459C87.7389 81.0459 89.7658 83.0574 89.7658 85.5285C89.7658 87.9996 87.7419 90.0111 85.2489 90.0111ZM85.2489 82.5675C83.6022 82.5675 82.2652 83.8943 82.2652 85.5285C82.2652 87.1627 83.6022 88.4895 85.2489 88.4895C86.8956 88.4895 88.2326 87.1596 88.2326 85.5285C88.2326 83.8943 86.8956 82.5675 85.2489 82.5675Z" fill="white" stroke="white"/>
<path d="M86.0155 72.501H84.4823V81.807H86.0155V72.501Z" fill="white" stroke="white"/>
<path d="M100.25 84.7681H88.9992V86.2897H100.25V84.7681Z" fill="white" stroke="white"/>
<path d="M85.3624 99.2868C85.3532 99.2868 85.2551 99.2868 85.2551 99.2868L85.2704 97.7652H85.3532C86.0984 97.7622 86.8435 97.7013 87.5703 97.5735L87.8371 99.0707C87.0245 99.2138 86.1934 99.2868 85.3624 99.2868ZM82.6823 99.0373C81.8329 98.876 80.9957 98.6386 80.1923 98.3282L80.7504 96.9101C81.4649 97.187 82.2131 97.4 82.9675 97.5431L82.6823 99.0373ZM90.3363 98.3952L89.7997 96.9709C90.5203 96.7031 91.2194 96.3684 91.8787 95.9728L92.6699 97.2753C91.9278 97.7196 91.1428 98.0939 90.3363 98.3952ZM77.8771 97.1779C77.1442 96.7275 76.4481 96.2071 75.8103 95.632L76.8406 94.506C77.411 95.0203 78.0304 95.4828 78.6836 95.8876L77.8771 97.1779ZM74.0593 93.7391C73.5349 93.0574 73.0719 92.3271 72.6824 91.5632L74.0501 90.8755C74.3966 91.5541 74.8106 92.2084 75.2797 92.817L74.0593 93.7391ZM71.7257 89.1743C71.4834 88.3527 71.3148 87.5067 71.2258 86.6515L72.7499 86.4963C72.8296 87.2571 72.9799 88.0149 73.1945 88.7452L71.7257 89.1743ZM72.7223 84.2048L71.1952 84.0861C71.2626 83.231 71.4098 82.3789 71.6306 81.5512L73.1117 81.9437C72.9124 82.6802 72.7805 83.441 72.7223 84.2048ZM74.0838 79.8622L72.6978 79.214L73.7434 77.0107L75.1295 77.6589L74.0838 79.8622Z" fill="white" stroke="white"/>
</g>
<defs>
<clipPath id="clip0">
<rect width="125" height="106" fill="white"/>
</clipPath>
</defs>
</svg>
