<svg width="78" height="70" viewBox="0 0 78 70" fill="none" xmlns="http://www.w3.org/2000/svg">
<path d="M70.3975 64.8822L65.8556 58.4297L73.2971 58.272L70.3975 64.8822ZM67.6918 59.357L70.2003 62.9214L71.8004 59.2733L67.6918 59.357Z" fill="#10BEF0" stroke="white" stroke-width="2" stroke-miterlimit="10"/>
<path d="M61.718 54.5176C61.4626 54.5176 61.2105 54.479 60.9648 54.4017L59.0834 53.8189C53.8724 51.8355 50.6333 47.6112 49.4857 45.8886C45.5904 40.0447 45.4159 31.406 49.0461 23.8781L50.1129 21.6629L52.5276 22.1523C53.7948 22.4099 55.1331 22.4099 56.4003 22.1523C57.6578 21.8979 58.8797 21.3828 59.9368 20.6647L61.718 19.4541L63.4991 20.6647C64.5562 21.3828 65.7814 21.8979 67.0356 22.1523C68.3028 22.4099 69.6411 22.4099 70.9083 22.1523L73.3263 21.6629L74.3931 23.8781C78.0233 31.406 77.8488 40.0447 73.9534 45.8886C72.8026 47.6112 69.57 51.8355 64.359 53.8189L62.4712 54.4049C62.2255 54.4822 61.9733 54.5176 61.718 54.5176ZM59.4131 52.9142L61.2525 53.484C61.5563 53.5774 61.8796 53.5774 62.1867 53.484L64.0422 52.9109C68.9623 51.037 72.0494 47.0058 73.1485 45.3605C76.8596 39.7935 77.005 31.5283 73.5235 24.3031L72.7832 22.7673L71.1087 23.1053C69.7155 23.3887 68.2414 23.3887 66.8481 23.1053C65.4678 22.8252 64.123 22.2585 62.9593 21.4697L61.7244 20.6293L60.4896 21.4697C59.3258 22.2585 57.9811 22.8252 56.5975 23.1053C55.2042 23.3887 53.7302 23.3887 52.3369 23.1053L50.6624 22.7673L49.9221 24.3031C46.4374 31.5315 46.5828 39.7967 50.2971 45.3605C51.3897 46.9994 54.4704 51.0274 59.4131 52.9142Z" fill="#10BEF0" stroke="white" stroke-width="2" stroke-miterlimit="10"/>
<path d="M60.4412 42.1408L56.4425 38.1579L57.1278 37.4753L60.3313 40.6662L66.7966 31.9502L67.5788 32.5265L60.4412 42.1408Z" fill="#10BEF0" stroke="white" stroke-width="2" stroke-miterlimit="10"/>
<path d="M68.0217 11.8361H60.3636V10.8702H67.0519V5.99542C67.0519 4.1537 65.678 2.56312 63.8581 2.29588C63.6868 2.2669 63.5122 2.25402 63.2988 2.25402C61.23 2.25402 59.5458 3.93475 59.5458 5.99863V8.75799H58.576V5.99863C58.576 3.40027 60.6966 1.28809 63.2988 1.28809C63.5704 1.28809 63.7967 1.3074 64.0133 1.34282C66.2923 1.67768 68.0217 3.68039 68.0217 5.99863V11.8361Z" fill="#10BEF0" stroke="white" stroke-width="2" stroke-miterlimit="10"/>
<path d="M63.0883 1.28174H54.0272V2.24768H63.0883V1.28174Z" fill="#10BEF0" stroke="white" stroke-width="2" stroke-miterlimit="10"/>
<path d="M10.6327 59.4215H9.66292V6.23055C9.66292 3.50339 11.8902 1.28174 14.6315 1.28174H42.2865V2.24767H14.6315C12.4268 2.24767 10.6327 4.03466 10.6327 6.23055V59.4215Z" fill="#10BEF0" stroke="white" stroke-width="2" stroke-miterlimit="10"/>
<path d="M59.5458 5.83789H58.576V17.2005H59.5458V5.83789Z" fill="#10BEF0" stroke="white" stroke-width="2" stroke-miterlimit="10"/>
<path d="M52.9965 68.3758V67.4099C56.0708 67.4099 58.5728 64.9178 58.5728 61.8558V57.4736H59.5426V61.8558C59.5458 65.449 56.6074 68.3758 52.9965 68.3758Z" fill="#10BEF0" stroke="white" stroke-width="2" stroke-miterlimit="10"/>
<path d="M52.4338 68.4047C52.2334 68.4047 52.0362 68.395 51.8358 68.3757L7.67174 68.3499C5.80005 68.5173 4.09969 68.0022 2.88423 66.8978C1.78837 65.9029 1.18387 64.4797 1.18387 62.8956V58.9385H47.1517V62.271C47.1517 63.6716 47.7918 65.0496 48.9135 66.051C49.7702 66.8173 50.8143 67.2874 51.8875 67.4065H52.9963L53.048 68.3692C52.8444 68.395 52.6407 68.4047 52.4338 68.4047ZM2.15689 59.9044V62.8956C2.15689 64.2222 2.63531 65.362 3.54045 66.183C4.55549 67.1071 6.00047 67.5321 7.60709 67.384L7.65234 67.3808L49.1042 67.4065C48.8133 67.2198 48.5321 67.0073 48.267 66.769C46.9449 65.5841 46.1852 63.9452 46.1852 62.271V59.9044H2.15689Z" fill="#10BEF0" stroke="white" stroke-width="2" stroke-miterlimit="10"/>
<path d="M24.3295 17.0328H17.4892V10.2197H24.3295V17.0328ZM18.459 16.0669H23.3597V11.1857H18.459V16.0669Z" fill="#10BEF0" stroke="white" stroke-width="2" stroke-miterlimit="10"/>
<path d="M41.2845 17.0328H34.4443V10.2197H41.2845V17.0328ZM35.414 16.0669H40.3147V11.1857H35.414V16.0669Z" fill="#10BEF0" stroke="white" stroke-width="2" stroke-miterlimit="10"/>
<path d="M24.3295 32.6231H17.4892V25.8101H24.3295V32.6231ZM18.459 31.6572H23.3597V26.776H18.459V31.6572Z" fill="#10BEF0" stroke="white" stroke-width="2" stroke-miterlimit="10"/>
<path d="M41.2845 32.6231H34.4443V25.8101H41.2845V32.6231ZM35.414 31.6572H40.3147V26.776H35.414V31.6572Z" fill="#10BEF0" stroke="white" stroke-width="2" stroke-miterlimit="10"/>
<path d="M40.7966 39.4521H17.3214V40.4181H40.7966V39.4521Z" fill="#10BEF0" stroke="white" stroke-width="2" stroke-miterlimit="10"/>
<path d="M31.6677 45.2964H17.3214V46.2623H31.6677V45.2964Z" fill="#10BEF0" stroke="white" stroke-width="2" stroke-miterlimit="10"/>
<path d="M40.7966 51.7939H17.3214V52.7599H40.7966V51.7939Z" fill="#10BEF0" stroke="white" stroke-width="2" stroke-miterlimit="10"/>
<path d="M40.1464 45.2964H36.2349V46.2623H40.1464V45.2964Z" fill="#10BEF0" stroke="white" stroke-width="2" stroke-miterlimit="10"/>
<path d="M40.4732 20.6133H32.647V21.5792H40.4732V20.6133Z" fill="#10BEF0" stroke="white" stroke-width="2" stroke-miterlimit="10"/>
<path d="M29.5467 9.73047H28.5769V17.5256H29.5467V9.73047Z" fill="#10BEF0" stroke="white" stroke-width="2" stroke-miterlimit="10"/>
<path d="M29.5467 26.6182H28.5769V32.4653H29.5467V26.6182Z" fill="#10BEF0" stroke="white" stroke-width="2" stroke-miterlimit="10"/>
<path d="M20.2596 20.6133H16.9978V21.5792H20.2596V20.6133Z" fill="#10BEF0" stroke="white" stroke-width="2" stroke-miterlimit="10"/>
<path d="M27.4327 20.6133H24.171V21.5792H27.4327V20.6133Z" fill="#10BEF0" stroke="white" stroke-width="2" stroke-miterlimit="10"/>
</svg>
