<svg width="58" height="67" viewBox="0 0 58 67" fill="none" xmlns="http://www.w3.org/2000/svg">
<path d="M48.6024 50.3147H39.3091V29.9692H48.6024V50.3147ZM40.0378 49.5859H47.8711V30.7006H40.0378V49.5859Z" fill="white" stroke="white" stroke-width="0.7" stroke-miterlimit="10"/>
<path d="M57.1642 50.3147H48.7V29.9692H57.1642V50.3147ZM49.4288 49.5859H56.4354V30.7006H49.4288V49.5859Z" fill="white" stroke="white" stroke-width="0.7" stroke-miterlimit="10"/>
<path d="M57.1644 29.8714H39.3065V16.9858H57.1644V29.8714ZM40.0378 29.1426H56.4357V17.7172H40.0378V29.1426ZM53.5748 24.6234H51.1878V22.2364H53.5748V24.6234ZM51.9165 23.8921H52.8435V22.9651H51.9165V23.8921ZM49.1535 24.6234H46.7664V22.2364H49.1535V24.6234ZM47.4951 23.8921H48.4222V22.9651H47.4951V23.8921ZM44.7347 24.6234H42.3476V22.2364H44.7347V24.6234ZM43.0764 23.8921H44.0034V22.9651H43.0764V23.8921Z" fill="white" stroke="white" stroke-width="0.7" stroke-miterlimit="10"/>
<path d="M19.5943 50.3146H1.18269V16.9858H7.58941L7.69498 17.1687C9.57219 20.4055 12.2889 23.4492 12.4047 23.578L12.773 23.9874L13.1412 23.578C13.6202 23.0449 16.0999 20.2227 17.8664 17.1687L17.972 16.9858H19.5943V37.0532H2.18954V37.151H19.5943V50.3146ZM1.91143 49.5859H18.863V37.8849H1.91143V49.5859ZM1.91143 36.3244H18.863V17.7172H18.3891C16.5943 20.7609 14.1609 23.5316 13.682 24.0646L12.7704 25.0792L11.8588 24.0646C11.743 23.9359 9.07521 20.9514 7.1671 17.7172H1.91143V36.3244ZM16.0021 45.6178H13.615V43.2307H16.0021V45.6178ZM14.3438 44.889H15.2708V43.962H14.3438V44.889ZM11.8588 45.6178H9.47176V43.2307H11.8588V45.6178ZM10.2005 44.889H11.1275V43.962H10.2005V44.889ZM7.43748 45.6178H5.05041V43.2307H7.43748V45.6178ZM5.77915 44.889H6.70617V43.962H5.77915V44.889Z" fill="white" stroke="white" stroke-width="0.7" stroke-miterlimit="10"/>
<path d="M21.8682 47.9561L29.8534 33.4946L37.8386 47.9561L29.8534 44.7733L21.8682 47.9561ZM29.856 43.9879L36.2163 46.5218L29.856 35.0036L23.4956 46.5218L29.856 43.9879Z" fill="white" stroke="white" stroke-width="0.7" stroke-miterlimit="10"/>
<path d="M22.4446 55.372C23.177 55.372 23.7708 54.7783 23.7708 54.0459C23.7708 53.3135 23.177 52.7197 22.4446 52.7197C21.7122 52.7197 21.1185 53.3135 21.1185 54.0459C21.1185 54.7783 21.7122 55.372 22.4446 55.372Z" fill="white" stroke="white" stroke-width="0.7" stroke-miterlimit="10"/>
<path d="M22.445 55.5006C21.6415 55.5006 20.9901 54.8491 20.9901 54.0457C20.9901 53.2423 21.6415 52.5908 22.445 52.5908C23.2484 52.5908 23.8999 53.2423 23.8999 54.0457C23.8999 54.8491 23.2484 55.5006 22.445 55.5006ZM22.445 52.8483C21.7857 52.8483 21.2476 53.3865 21.2476 54.0457C21.2476 54.7049 21.7857 55.2431 22.445 55.2431C23.1042 55.2431 23.6423 54.7049 23.6423 54.0457C23.6423 53.3865 23.1067 52.8483 22.445 52.8483Z" fill="white" stroke="white" stroke-width="0.7" stroke-miterlimit="10"/>
<path d="M29.228 55.372C29.9604 55.372 30.5542 54.7783 30.5542 54.0459C30.5542 53.3135 29.9604 52.7197 29.228 52.7197C28.4956 52.7197 27.9019 53.3135 27.9019 54.0459C27.9019 54.7783 28.4956 55.372 29.228 55.372Z" fill="white" stroke="white" stroke-width="0.7" stroke-miterlimit="10"/>
<path d="M29.2275 55.5006C28.4241 55.5006 27.7726 54.8491 27.7726 54.0457C27.7726 53.2423 28.4241 52.5908 29.2275 52.5908C30.031 52.5908 30.6824 53.2423 30.6824 54.0457C30.6824 54.8491 30.031 55.5006 29.2275 55.5006ZM29.2275 52.8483C28.5683 52.8483 28.0301 53.3865 28.0301 54.0457C28.0301 54.7049 28.5683 55.2431 29.2275 55.2431C29.8868 55.2431 30.4249 54.7049 30.4249 54.0457C30.4249 53.3865 29.8868 52.8483 29.2275 52.8483Z" fill="white" stroke="white" stroke-width="0.7" stroke-miterlimit="10"/>
<path d="M36.0105 55.372C36.7429 55.372 37.3366 54.7783 37.3366 54.0459C37.3366 53.3135 36.7429 52.7197 36.0105 52.7197C35.2781 52.7197 34.6843 53.3135 34.6843 54.0459C34.6843 54.7783 35.2781 55.372 36.0105 55.372Z" fill="white" stroke="white" stroke-width="0.7" stroke-miterlimit="10"/>
<path d="M36.0101 55.5006C35.2067 55.5006 34.5552 54.8491 34.5552 54.0457C34.5552 53.2423 35.2067 52.5908 36.0101 52.5908C36.8136 52.5908 37.465 53.2423 37.465 54.0457C37.465 54.8491 36.811 55.5006 36.0101 55.5006ZM36.0101 52.8483C35.3509 52.8483 34.8127 53.3865 34.8127 54.0457C34.8127 54.7049 35.3509 55.2431 36.0101 55.2431C36.6694 55.2431 37.2075 54.7049 37.2075 54.0457C37.2075 53.3865 36.6694 52.8483 36.0101 52.8483Z" fill="white" stroke="white" stroke-width="0.7" stroke-miterlimit="10"/>
<path d="M30.25 32.547H29.4774V31.5169H30.25V32.547ZM30.25 30.4869H29.4774V29.4569H30.25V30.4869ZM30.25 28.4269H29.4774V27.3969H30.25V28.4269ZM30.25 26.3668H29.4774V25.3368H30.25V26.3668ZM30.25 24.3068H29.4774V23.2768H30.25V24.3068ZM30.25 22.2468H29.4774V21.2168H30.25V22.2468ZM30.25 20.1867H29.4774V19.1567H30.25V20.1867ZM30.25 18.1267H29.4774V17.0967H30.25V18.1267Z" fill="white" stroke="white" stroke-width="0.7" stroke-miterlimit="10"/>
<path d="M30.3788 32.6755H29.3487V31.388H30.3788V32.6755ZM29.6062 32.418H30.1212V31.6455H29.6062V32.418ZM30.3788 30.6155H29.3487V29.328H30.3788V30.6155ZM29.6062 30.358H30.1212V29.5855H29.6062V30.358ZM30.3788 28.5555H29.3487V27.268H30.3788V28.5555ZM29.6062 28.298H30.1212V27.5255H29.6062V28.298ZM30.3788 26.4954H29.3487V25.2079H30.3788V26.4954ZM29.6062 26.2379H30.1212V25.4654H29.6062V26.2379ZM30.3788 24.4354H29.3487V23.1479H30.3788V24.4354ZM29.6062 24.1779H30.1212V23.4054H29.6062V24.1779ZM30.3788 22.3754H29.3487V21.0878H30.3788V22.3754ZM29.6062 22.1179H30.1212V21.3454H29.6062V22.1179ZM30.3788 20.3153H29.3487V19.0278H30.3788V20.3153ZM29.6062 20.0578H30.1212V19.2853H29.6062V20.0578ZM30.3788 18.2553H29.3487V16.9678H30.3788V18.2553ZM29.6062 17.9978H30.1212V17.2253H29.6062V17.9978Z" fill="white" stroke="white" stroke-width="0.7" stroke-miterlimit="10"/>
<path d="M56.8423 49.4648H1.51488V50.2374H56.8423V49.4648Z" fill="white" stroke="white" stroke-width="0.7" stroke-miterlimit="10"/>
<path d="M56.9712 50.366H1.38625V49.3359H56.9712V50.366ZM1.64376 50.1085H56.7137V49.5934H1.64376V50.1085Z" fill="white" stroke="white" stroke-width="0.7" stroke-miterlimit="10"/>
<path d="M53.8758 58.5369H4.48132C2.63244 58.5369 1.12861 57.0331 1.12861 55.1842V14.586C1.12861 12.4642 2.84616 10.7363 4.96028 10.7363V11.5088C3.27362 11.5088 1.90112 12.8891 1.90112 14.586V55.1842C1.90112 56.6056 3.05732 57.7644 4.48132 57.7644H53.8758C55.2973 57.7644 56.456 56.6082 56.456 55.1842V14.568C56.456 12.8813 55.0835 11.5088 53.3969 11.5088H25.3057V10.7363H53.3969C55.5084 10.7363 57.2285 12.4539 57.2285 14.568V55.1842C57.2285 57.0331 55.7221 58.5369 53.8758 58.5369Z" fill="white" stroke="white" stroke-width="0.7" stroke-miterlimit="10"/>
<path d="M53.876 58.6655H4.48146C2.56048 58.6655 1 57.105 1 55.184V14.5859C1 12.3919 2.77678 10.6074 4.96042 10.6074H5.08917V11.6374H4.96042C3.34587 11.6374 2.03002 12.961 2.03002 14.5859V55.184C2.03002 56.5359 3.12956 57.6355 4.48146 57.6355H53.876C55.2279 57.6355 56.3274 56.5359 56.3274 55.184V14.5678C56.3274 12.9533 55.0141 11.6374 53.397 11.6374H25.1771V10.6074H53.397C55.5807 10.6074 57.3574 12.3842 57.3574 14.5678V55.184C57.3574 57.105 55.7944 58.6655 53.876 58.6655ZM4.82909 10.8675C2.84888 10.937 1.2575 12.5773 1.2575 14.5859V55.184C1.2575 56.9608 2.70468 58.408 4.48146 58.408H53.876C55.6528 58.408 57.0999 56.9608 57.0999 55.184V14.5678C57.0999 12.5258 55.439 10.8649 53.397 10.8649H25.4346V11.3799H53.397C55.1532 11.3799 56.5849 12.8091 56.5849 14.5678V55.184C56.5849 56.6776 55.3695 57.893 53.876 57.893H4.48146C2.98793 57.893 1.77251 56.6776 1.77251 55.184V14.5859C1.77251 12.8606 3.13214 11.452 4.83167 11.3825V10.8675H4.82909Z" fill="white" stroke="white" stroke-width="0.7" stroke-miterlimit="10"/>
<path d="M12.7835 22.9703L12.5105 22.6638C12.2607 22.3832 6.38706 15.755 6.38706 11.8847C6.38706 8.1792 9.07798 5.48828 12.7835 5.48828C16.489 5.48828 19.1799 8.1792 19.1799 11.8847C19.1799 15.7473 13.3062 22.3832 13.0564 22.6638L12.7835 22.9703ZM12.7835 6.21702C9.50029 6.21702 7.1158 8.60151 7.1158 11.8847C7.1158 15.0288 11.617 20.5008 12.7835 21.863C13.95 20.4982 18.4511 15.0237 18.4511 11.8847C18.4486 8.60151 16.0667 6.21702 12.7835 6.21702ZM12.7835 14.5833C11.3414 14.5833 10.1672 13.4091 10.1672 11.9671C10.1672 10.5251 11.3414 9.35085 12.7835 9.35085C14.2255 9.35085 15.3997 10.5225 15.3997 11.9645C15.3997 13.4091 14.2255 14.5833 12.7835 14.5833ZM12.7835 10.077C11.7432 10.077 10.896 10.9242 10.896 11.9645C10.896 13.0048 11.7432 13.852 12.7835 13.852C13.8238 13.852 14.6684 13.0048 14.6684 11.9645C14.6684 10.9242 13.8238 10.077 12.7835 10.077Z" fill="white" stroke="white" stroke-width="0.7" stroke-miterlimit="10"/>
<path d="M37.3108 62.9637H21.0468V57.7646H37.3108V62.9637ZM21.8193 62.1912H36.5383V58.5372H21.8193V62.1912Z" fill="white" stroke="white" stroke-width="0.7" stroke-miterlimit="10"/>
<path d="M37.4396 63.0923H20.9181V57.6357H37.4396V63.0923ZM21.1756 62.8348H37.1821V57.8932H21.1756V62.8348ZM36.6671 62.3198H21.6906V58.4083H36.6671V62.3198ZM21.9481 62.0622H36.4096V58.6658H21.9481V62.0622Z" fill="white" stroke="white" stroke-width="0.7" stroke-miterlimit="10"/>
<path d="M42.2886 66.2827H16.067V64.5213C16.067 63.2364 17.1124 62.1909 18.3974 62.1909H39.9608C41.2457 62.1909 42.2912 63.2364 42.2912 64.5213V66.2827H42.2886ZM16.8395 65.5102H41.5161V64.5213C41.5161 63.6638 40.8183 62.9634 39.9582 62.9634H18.3974C17.5399 62.9634 16.8395 63.6613 16.8395 64.5213V65.5102Z" fill="white" stroke="white" stroke-width="0.7" stroke-miterlimit="10"/>
<path d="M42.4169 66.4113H15.9377V64.5212C15.9377 63.1667 17.0398 62.062 18.3969 62.062H39.9603C41.3148 62.062 42.4195 63.1641 42.4195 64.5212V66.4113H42.4169ZM16.1952 66.1538H42.1594V64.5212C42.1594 63.3083 41.1732 62.3195 39.9577 62.3195H18.3969C17.184 62.3195 16.1952 63.3058 16.1952 64.5212V66.1538ZM41.6444 65.6387H16.7102V64.5212C16.7102 63.5916 17.4673 62.8345 18.3969 62.8345H39.9603C40.8899 62.8345 41.647 63.5916 41.647 64.5212V65.6387H41.6444ZM16.9677 65.3812H41.3869V64.5212C41.3869 63.7332 40.7457 63.092 39.9577 63.092H18.3969C17.6089 63.092 16.9677 63.7332 16.9677 64.5212V65.3812Z" fill="white" stroke="white" stroke-width="0.7" stroke-miterlimit="10"/>
<path d="M23.3434 12.7626L22.576 12.6648C22.6146 12.3506 22.6352 12.0442 22.6352 11.7532C22.6352 6.13444 18.3993 1.89849 12.7805 1.89849C11.0707 1.89849 9.47675 2.2796 8.03988 3.03151L7.68195 2.34655C9.23212 1.53541 10.9471 1.12598 12.7805 1.12598C18.8396 1.12598 23.4077 5.69411 23.4077 11.7532C23.4077 12.0776 23.3871 12.4176 23.3434 12.7626Z" fill="white" stroke="white" stroke-width="0.7" stroke-miterlimit="10"/>
<path d="M23.4543 12.907L22.432 12.7783L22.4475 12.6495C22.4861 12.3405 22.5067 12.0392 22.5067 11.7534C22.5067 6.20932 18.3248 2.02744 12.7807 2.02744C11.0915 2.02744 9.51816 2.4034 8.09931 3.14501L7.986 3.20424L7.50962 2.29525L7.62292 2.23602C9.19112 1.41458 10.9267 1 12.7833 1C18.9145 1 23.5393 5.62478 23.5393 11.756C23.5393 12.083 23.5161 12.4281 23.4723 12.7808L23.4543 12.907ZM22.7204 12.5542L23.2303 12.6186C23.2637 12.3225 23.2792 12.0315 23.2792 11.7534C23.2792 5.76898 18.7651 1.25493 12.7807 1.25493C11.0117 1.25493 9.35593 1.64119 7.85468 2.4034L8.09416 2.85918C9.52073 2.1356 11.0967 1.76994 12.7807 1.76994C18.4716 1.76994 22.7642 6.06254 22.7642 11.7534C22.7642 12.0109 22.7487 12.2787 22.7204 12.5542Z" fill="white" stroke="white" stroke-width="0.7" stroke-miterlimit="10"/>
<path d="M4.96063 5.60913L4.35034 5.13532C4.80355 4.55079 5.31856 4.01518 5.88764 3.54395L6.38205 4.13878C5.85674 4.57396 5.37778 5.07095 4.96063 5.60913Z" fill="white" stroke="white" stroke-width="0.7" stroke-miterlimit="10"/>
<path d="M4.98378 5.7896L4.17007 5.15871L4.24989 5.05571C4.70825 4.46345 5.23099 3.92269 5.80522 3.44373L5.90307 3.36133L6.56228 4.15444L6.46443 4.23942C5.94685 4.66945 5.47562 5.15613 5.06361 5.68917L4.98378 5.7896ZM4.53057 5.11493L4.93743 5.42909C5.31596 4.95528 5.73827 4.51752 6.1992 4.12354L5.8696 3.72698C5.38291 4.14414 4.93228 4.61023 4.53057 5.11493Z" fill="white" stroke="white" stroke-width="0.7" stroke-miterlimit="10"/>
</svg>
