<svg width="62" height="60" viewBox="0 0 62 60" fill="none" xmlns="http://www.w3.org/2000/svg">
<path d="M52.739 49.4209L45.315 28.8511C44.3549 26.3312 44.2848 24.7498 44.2451 22.1736C44.189 18.5909 44.1587 17.6242 44.1423 17.4436L44.0512 16.3948L47.8193 20.6134C49.562 22.5655 50.6809 23.8981 51.7065 26.5846C51.7088 26.5917 59.0673 46.9878 59.0673 46.9878L52.739 49.4209ZM44.8735 18.3703C44.8922 19.1728 44.9179 20.4397 44.9436 22.1619C44.9833 24.7334 45.0487 26.1858 45.9691 28.6048L53.1525 48.5058L58.1703 46.5772L51.0477 26.8333C50.1156 24.3885 49.1882 23.2013 47.2936 21.0826L44.8735 18.3703Z" fill="white" stroke="white" stroke-miterlimit="10"/>
<path d="M43.7028 14.1665L43.0488 14.4194L44.5756 18.4022L45.2296 18.1493L43.7028 14.1665Z" fill="white" stroke="white" stroke-miterlimit="10"/>
<path d="M54.2742 53.4353L52.5338 48.8671L58.8809 46.427L60.6213 50.9952L54.2742 53.4353ZM53.4402 49.273L54.6807 52.5273L59.7195 50.5916L58.4791 47.3374L53.4402 49.273Z" fill="white" stroke="white" stroke-miterlimit="10"/>
<path d="M58.0939 58.2031C57.5496 58.2031 57.0334 57.87 56.8278 57.328L55.0103 52.7832L55.6598 52.5205L57.4795 57.0722C57.6104 57.4148 57.9888 57.5861 58.3252 57.457L60.2711 56.7085C60.4346 56.6452 60.5631 56.5232 60.6332 56.3636C60.7033 56.2041 60.7103 56.0258 60.6472 55.8615L58.9746 51.3567L59.631 51.1104L61.3037 55.6128C61.4321 55.9484 61.4228 56.3191 61.2756 56.6499C61.1285 56.9807 60.8621 57.2365 60.5234 57.3655L58.5751 58.114C58.4186 58.1726 58.2551 58.2031 58.0939 58.2031Z" fill="white" stroke="white" stroke-miterlimit="10"/>
<path d="M39.6157 13.6614H27.2299V14.3653H39.6157V13.6614Z" fill="white" stroke="white" stroke-miterlimit="10"/>
<path d="M19.4321 16.5848L16.3322 13.4737L16.8274 12.9763L19.4321 15.59L23.3123 11.6929L23.8075 12.1903L19.4321 16.5848Z" fill="white" stroke="white" stroke-miterlimit="10"/>
<path d="M39.6154 25.6133H27.2297V26.3172H39.6154V25.6133Z" fill="white" stroke="white" stroke-miterlimit="10"/>
<path d="M42.9817 31.0027H27.2297V31.7066H42.9817V31.0027Z" fill="white" stroke="white" stroke-miterlimit="10"/>
<path d="M23.1046 31.7065H17.0355V25.6133H23.1046V31.7065ZM17.7364 31.0027H22.4038V26.3172H17.7364V31.0027Z" fill="white" stroke="white" stroke-miterlimit="10"/>
<path d="M44.3114 43.6609H43.7064V42.957H44.3114V43.6609ZM42.772 43.6609H41.8376V42.957H42.772V43.6609ZM40.9031 43.6609H39.9687V42.957H40.9031V43.6609ZM39.0343 43.6609H38.0999V42.957H39.0343V43.6609ZM37.1655 43.6609H36.231V42.957H37.1655V43.6609ZM35.2966 43.6609H34.3622V42.957H35.2966V43.6609ZM33.4278 43.6609H32.4933V42.957H33.4278V43.6609ZM31.5589 43.6609H30.6245V42.957H31.5589V43.6609ZM29.6901 43.6609H28.7557V42.957H29.6901V43.6609ZM27.8212 43.6609H26.8868V42.957H27.8212V43.6609Z" fill="white" stroke="white" stroke-miterlimit="10"/>
<path d="M23.1046 46.3545H17.0355V40.2612H23.1046V46.3545ZM17.7364 45.6506H22.4038V40.9651H17.7364V45.6506Z" fill="white" stroke="white" stroke-miterlimit="10"/>
<path d="M50.3543 58.203H8.56466V3H50.3543V18.2766H49.6535V3.70388H9.26547V57.4992H49.6535V49.9324H50.3543V58.203Z" fill="white" stroke="white" stroke-miterlimit="10"/>
<path d="M12.2579 11.2917H4V11.9956H12.2579V11.2917Z" fill="white" stroke="white" stroke-miterlimit="10"/>
<path d="M12.2579 20.4751H4V21.179H12.2579V20.4751Z" fill="white" stroke="white" stroke-miterlimit="10"/>
<path d="M12.2579 29.656H4V30.3599H12.2579V29.656Z" fill="white" stroke="white" stroke-miterlimit="10"/>
<path d="M12.2579 38.8391H4V39.543H12.2579V38.8391Z" fill="white" stroke="white" stroke-miterlimit="10"/>
<path d="M12.2579 48.0203H4V48.7241H12.2579V48.0203Z" fill="white" stroke="white" stroke-miterlimit="10"/>
<path d="M50.0038 52.9944H8.915V53.6983H50.0038V52.9944Z" fill="white" stroke="white" stroke-miterlimit="10"/>
</svg>
